<?xml version="1.0" encoding="UTF-8"?>
<svg version="1.1" xmlns="http://www.w3.org/2000/svg" width="500" height="500">
    <path d="M0 0 C165 0 330 0 500 0 C500 165 500 330 500 500 C335 500 170 500 0 500 C0 335 0 170 0 0 Z " fill="#FEFEFE" transform="translate(0,0)"/>
    <path d="M0 0 C1.10190674 0.01305176 1.10190674 0.01305176 2.22607422 0.02636719 C37.53298882 0.5138228 73.94567729 12.92044649 104 31 C103.34 31.33 102.68 31.66 102 32 C100.19433594 31.32250977 100.19433594 31.32250977 97.984375 30.19140625 C96.74143677 29.57072266 96.74143677 29.57072266 95.47338867 28.9375 C94.57467041 28.48375 93.67595215 28.03 92.75 27.5625 C85.03332212 23.77227505 77.27705757 20.41386913 69.1875 17.5 C68.28805664 17.17459229 67.38861328 16.84918457 66.46191406 16.51391602 C61.35676186 14.7116194 56.27349945 13.22497084 51 12 C53.03268602 14.16343011 53.03268602 14.16343011 56 16 C56.99 16.66 57.98 17.32 59 18 C54.05 18.33 49.1 18.66 44 19 C46.20093736 21.20093736 47.42221203 21.60854972 50.34765625 22.5234375 C77.60518691 31.3497782 102.54738461 44.14806482 125 62 C125.96550781 62.76183594 126.93101562 63.52367187 127.92578125 64.30859375 C133.26581921 68.59363097 138.3033628 73.01483219 143 78 C139.11961451 78 138.6621612 76.98910721 135.9375 74.3125 C124.22441949 63.48471045 110.75474568 54.79651907 96.85400391 47.05419922 C95.62183267 46.35357828 94.40467804 45.62583926 93.20458984 44.87158203 C89.05610254 42.30402035 85.77116554 41.66847346 81 41 C77.77850117 39.77026825 74.68528306 38.27204878 71.5625 36.8125 C32.4328917 19.30934841 -12.83594291 18.08211022 -54 28 C-54 28.33 -54 28.66 -54 29 C-52.02013918 28.88652381 -50.04108402 28.7589065 -48.0625 28.625 C-46.96035156 28.55539063 -45.85820312 28.48578125 -44.72265625 28.4140625 C-43.82417969 28.27742188 -42.92570313 28.14078125 -42 28 C-41.67 27.34 -41.34 26.68 -41 26 C-38.8828125 25.40234375 -38.8828125 25.40234375 -36.125 24.9375 C-35.24070313 24.78152344 -34.35640625 24.62554687 -33.4453125 24.46484375 C20.3996508 17.20004711 73.98458675 31.96275125 117.95703125 63.5625 C124.32282287 68.66167069 130.16452823 74.31062493 136 80 C136.94230469 80.90234375 137.88460938 81.8046875 138.85546875 82.734375 C144.73037946 88.4544431 149.98324628 94.51758367 155 101 C155.63591064 101.82129395 155.63591064 101.82129395 156.28466797 102.65917969 C179.08522155 132.33238825 200.42527979 171.92034272 200.0625 210.375 C200.05347656 211.62023437 200.04445313 212.86546875 200.03515625 214.1484375 C200.01775391 215.55996094 200.01775391 215.55996094 200 217 C198.68 216.67 197.36 216.34 196 216 C195.90203125 215.36578125 195.8040625 214.7315625 195.703125 214.078125 C195.16404448 210.71351902 194.58257052 207.35735727 194 204 C193.8870459 203.30825684 193.7740918 202.61651367 193.65771484 201.90380859 C189.81422852 178.67309807 181.79123657 156.87212087 171 136 C171.26627197 136.58676514 171.53254395 137.17353027 171.80688477 137.77807617 C182.13445455 160.67118922 192.20557886 184.57852344 193 210 C190.70975212 207.70975212 190.61306665 206.88300509 190.10546875 203.7734375 C189.9573877 202.91443848 189.80930664 202.05543945 189.65673828 201.17041016 C189.50188965 200.2479248 189.34704102 199.32543945 189.1875 198.375 C185.80503583 179.56824319 179.69683161 161.53963121 170 145 C170.26216309 145.54938232 170.52432617 146.09876465 170.79443359 146.66479492 C171.98956068 149.17160174 173.18230011 151.67953751 174.375 154.1875 C174.7875 155.05181641 175.2 155.91613281 175.625 156.80664062 C176.02460938 157.64775391 176.42421875 158.48886719 176.8359375 159.35546875 C177.38580322 160.51018677 177.38580322 160.51018677 177.94677734 161.68823242 C179.92326055 166.02650767 181.35044061 170.22033605 182.46435547 174.86328125 C183.0010296 177.00410714 183.61054221 179.10769649 184.25390625 181.21875 C184.46853516 181.92386719 184.68316406 182.62898437 184.90429688 183.35546875 C185.34343662 184.7862564 185.78615321 186.21595108 186.23242188 187.64453125 C187.68218231 192.4361866 188.50052584 197.01648258 189 202 C185.90017664 200.45008832 185.61955607 198.00037127 184.375 194.8125 C184.11485107 194.1517749 183.85470215 193.4910498 183.58666992 192.81030273 C182.05703129 188.88239163 180.61136159 184.93021424 179.21484375 180.953125 C171.72633147 159.6580352 162.87258252 139.61804974 150 121 C149.59539551 120.41299316 149.19079102 119.82598633 148.77392578 119.22119141 C143.87263338 112.2047144 138.33899109 105.90499055 132.48046875 99.69140625 C130 97 130 97 127.8984375 94.35546875 C124.99625163 90.7546085 121.53324264 87.96433069 118 85 C117.21882813 84.33097656 116.43765625 83.66195312 115.6328125 82.97265625 C73.42740054 47.50215045 21.32235803 29.44550361 -34 33 C-42.10496848 33.80901138 -50.05295237 35.23555226 -58 37 C-59.07241943 37.23227295 -59.07241943 37.23227295 -60.16650391 37.46923828 C-91.45213415 44.44305317 -119.593081 60.34313101 -143 82 C-143.93070312 82.82757813 -144.86140625 83.65515625 -145.8203125 84.5078125 C-146.76648438 85.35085937 -147.71265625 86.19390625 -148.6875 87.0625 C-149.53699219 87.81660156 -150.38648438 88.57070312 -151.26171875 89.34765625 C-181.15632703 118.30405999 -200.36628556 157.24105719 -207 198 C-207.19851562 199.14210937 -207.39703125 200.28421875 -207.6015625 201.4609375 C-208.1275951 206.13334475 -208.10646108 210.74042767 -208.0625 215.4375 C-208.05798828 216.35982422 -208.05347656 217.28214844 -208.04882812 218.23242188 C-208.03713938 220.48835048 -208.02075455 222.74413967 -208 225 C-207.34 225 -206.68 225 -206 225 C-205.01 217.41 -204.02 209.82 -203 202 C-202.67 202 -202.34 202 -202 202 C-202.89315155 223.14270653 -202.89315155 223.14270653 -203.5625 231.5 C-205.95184745 263.72786851 -197.7831117 296.86762726 -182 325 C-181.35686871 326.19336222 -180.71494426 327.38737562 -180.07421875 328.58203125 C-173.50188063 340.64813601 -165.70542967 351.54323475 -156.296875 361.55078125 C-154.30891246 363.67059844 -152.42865364 365.8364453 -150.5625 368.0625 C-125.97302946 396.13215082 -91.83321583 410.28216251 -56.49609375 418.984375 C-55.79669678 419.15678711 -55.0972998 419.32919922 -54.37670898 419.50683594 C-48.10374087 420.80846877 -41.98640724 421.19206653 -35.60546875 421.2734375 C-34.70874954 421.28601089 -33.81203033 421.29858429 -32.88813782 421.3115387 C-13.10957469 421.53498973 5.8396243 421.5410576 25 416 C26.33393799 415.61448975 26.33393799 415.61448975 27.69482422 415.22119141 C51.55296985 408.04657091 73.03292168 396.12051838 92 380 C93.08400227 379.1112064 94.16868823 378.22324627 95.25390625 377.3359375 C106.97825256 367.64515716 117.05181828 356.97932507 125.9609375 344.65234375 C127.81765386 342.23718971 129.70870695 340.25201946 131.9375 338.1875 C147.20094263 323.46918032 155.65621201 301.72332175 162 282 C162.33 281.01 162.66 280.02 163 279 C163.66 279 164.32 279 165 279 C165.33 276.36 165.66 273.72 166 271 C168 273 168 273 168.22705078 275.24658203 C168.21657715 276.15778809 168.20610352 277.06899414 168.1953125 278.0078125 C168.18886719 278.99394531 168.18242187 279.98007812 168.17578125 280.99609375 C168.15902344 282.02863281 168.14226562 283.06117188 168.125 284.125 C168.11597656 285.16527344 168.10695313 286.20554687 168.09765625 287.27734375 C168.07403747 289.85179092 168.04110149 292.42578212 168 295 C168.66 295 169.32 295 170 295 C170.19335938 294.38511719 170.38671875 293.77023437 170.5859375 293.13671875 C170.97652344 291.92435547 170.97652344 291.92435547 171.375 290.6875 C171.75785156 289.48673828 171.75785156 289.48673828 172.1484375 288.26171875 C173 286 173 286 175 283 C174.67 288.28 174.34 293.56 174 299 C175.485 295.04 175.485 295.04 177 291 C177.66 291.33 178.32 291.66 179 292 C178.10693221 302.65016669 176.29563141 312.4050996 173.0234375 322.5859375 C171.85642661 325.88491638 171.85642661 325.88491638 172 329 C175.14169523 321.7728592 177.92957946 314.60837466 180 307 C180.33 307 180.66 307 181 307 C181 308.65 181 310.3 181 312 C181.66 312 182.32 312 183 312 C176.30446668 339.75856523 158.8250001 366.09902163 139.3671875 386.515625 C137.38077937 388.60037017 135.5258046 390.72421785 133.6875 392.9375 C102.58592091 428.42989026 51.03508981 454.91261465 3.94873047 458.140625 C-0.17893599 458.30577295 -4.29110432 458.2218011 -8.41699219 458.08251953 C-11.4261275 457.98638647 -14.43522463 457.93010651 -17.4453125 457.87109375 C-56.6795489 456.9580339 -94.23908164 449.79218755 -129 431 C-129.5986084 430.68063477 -130.1972168 430.36126953 -130.81396484 430.03222656 C-176.00156872 405.76959925 -210.17603283 363.02247809 -227.796875 315.22265625 C-228.47248642 313.41298281 -229.16490219 311.60868727 -229.91503906 309.82861328 C-232.66435251 303.26255954 -234.56155393 296.65884565 -236.25 289.75 C-236.518125 288.70070313 -236.78625 287.65140625 -237.0625 286.5703125 C-237.31515625 285.55195313 -237.5678125 284.53359375 -237.828125 283.484375 C-238.0540332 282.57397461 -238.27994141 281.66357422 -238.51269531 280.72558594 C-239.04162397 277.76718937 -239.08266669 274.99914755 -239 272 C-239.33 272 -239.66 272 -240 272 C-240 269.69 -240 267.38 -240 265 C-240.33 265 -240.66 265 -241 265 C-241.65024853 208.70410679 -235.00286643 165.93831566 -210 115 C-213.20231248 120.24391622 -216.36804809 125.44365709 -219 131 C-220.17412097 127.47763709 -219.86503488 127.08400292 -218.296875 123.89453125 C-217.89903809 123.0835498 -217.50120117 122.27256836 -217.09130859 121.43701172 C-216.64867676 120.57092285 -216.20604492 119.70483398 -215.75 118.8125 C-215.29834473 117.92062988 -214.84668945 117.02875977 -214.38134766 116.10986328 C-209.94684378 107.55945687 -204.76470118 99.70279462 -199 92 C-197.96746094 90.61941406 -197.96746094 90.61941406 -196.9140625 89.2109375 C-191.66681385 82.46447495 -185.86597415 76.20645707 -180 70 C-179.19691406 69.14277344 -178.39382812 68.28554687 -177.56640625 67.40234375 C-166.31850412 55.74811347 -153.2490323 46.2597166 -138.97265625 38.6796875 C-135.77833309 36.874748 -132.7889275 34.86770729 -129.75 32.8125 C-91.44508303 7.50544345 -45.14697286 -1.00459038 0 0 Z " fill="#5674FF" transform="translate(271,21)"/>
    <path d="M0 0 C0.11022726 7.24751982 -0.21312711 14.40003461 -0.76953125 21.625 C-0.89203499 23.22807007 -0.89203499 23.22807007 -1.01701355 24.86352539 C-1.19043242 27.10239339 -1.36618875 29.34108146 -1.54418945 31.57958984 C-1.81383763 35.01705199 -2.0641321 38.45561464 -2.31445312 41.89453125 C-2.48578541 44.07561494 -2.65826992 46.25660849 -2.83203125 48.4375 C-2.94004814 49.98268311 -2.94004814 49.98268311 -3.05024719 51.55908203 C-3.13010361 52.5076709 -3.20996002 53.45625977 -3.29223633 54.43359375 C-3.38883293 55.68740845 -3.38883293 55.68740845 -3.48738098 56.96655273 C-4 59 -4 59 -7 61 C-8.81629408 61.59631342 -10.6526226 62.13335924 -12.5 62.625 C-13.93859375 63.01558594 -13.93859375 63.01558594 -15.40625 63.4140625 C-18 64 -18 64 -21 64 C-21 62.68 -21 61.36 -21 60 C-22.134375 60.66 -23.26875 61.32 -24.4375 62 C-29.02120694 64.25945978 -32.95404234 65.02552737 -38 64 C-42.77831544 61.95886919 -46.24884415 58.44634488 -48.33984375 53.703125 C-50.16340886 46.23621935 -50.62347481 36.44301504 -47.4375 29.3125 C-43.31224534 22.85683832 -37.38706933 18.82788423 -30 17 C-24.11171784 16.1756405 -23.52009953 17.31993365 -18 21 C-17.67 15.39 -17.34 9.78 -17 4 C-15.7625 3.525625 -14.525 3.05125 -13.25 2.5625 C-12.55390625 2.29566406 -11.8578125 2.02882812 -11.140625 1.75390625 C-7.27197443 0.39140705 -4.10858503 -0.0435554 0 0 Z " fill="#050505" transform="translate(159,215)"/>
    <path d="M0 0 C7.37514033 -0.56490437 13.57485186 0.12127345 20 4 C24.53676675 8.09958741 27.70453858 11.75414529 28.2734375 18.00390625 C28.50502413 26.11834539 28.02162977 32.40152996 23 39 C16.93024092 45.09515556 10.56097524 47.03378142 2.0625 47.375 C-4.49178836 47.23589525 -8.87567693 45.81746991 -13.75 41.421875 C-19.18890877 35.61688583 -20.5178642 29.30085401 -20.3046875 21.484375 C-19.44126961 14.44419837 -15.51540555 9.81957338 -10.171875 5.41015625 C-6.86046083 3.26011935 -3.87898343 2.62340805 0 2 C0 1.34 0 0.68 0 0 Z " fill="#050505" transform="translate(340,232)"/>
    <path d="M0 0 C1.95792062 0.9824318 3.87244564 2.00398258 5.765625 3.10546875 C5.765625 2.11546875 5.765625 1.12546875 5.765625 0.10546875 C8.92068642 -0.83072938 11.73149002 -1.00024355 15.015625 -0.95703125 C15.90765625 -0.94800781 16.7996875 -0.93898437 17.71875 -0.9296875 C18.39421875 -0.91808594 19.0696875 -0.90648437 19.765625 -0.89453125 C19.67474609 -0.03811035 19.58386719 0.81831055 19.49023438 1.70068359 C19.15065073 4.92455143 18.81576057 8.14886523 18.48388672 11.37353516 C18.34021377 12.76044521 18.19475316 14.14717143 18.04736328 15.53369141 C15.74976504 28.58738189 15.74976504 28.58738189 17.765625 41.10546875 C15.97609315 41.94337664 14.18392805 42.77566271 12.390625 43.60546875 C11.39289063 44.06953125 10.39515625 44.53359375 9.3671875 45.01171875 C6.765625 46.10546875 6.765625 46.10546875 4.765625 46.10546875 C4.270625 43.63046875 4.270625 43.63046875 3.765625 41.10546875 C2.3734375 42.06453125 2.3734375 42.06453125 0.953125 43.04296875 C-3.61991126 46.00199221 -7.83833652 47.09618526 -13.234375 46.10546875 C-18.26458106 43.64039489 -22.38200887 39.88396824 -24.60546875 34.69921875 C-26.74051692 25.89380271 -26.53695773 16.0759875 -21.8671875 8.1640625 C-16.54453269 1.45344268 -8.66889823 -3.47059037 0 0 Z " fill="#050505" transform="translate(234.234375,232.89453125)"/>
    <path d="M0 0 C0 1.65 0 3.3 0 5 C0.68964844 4.71125 1.37929688 4.4225 2.08984375 4.125 C9.21889591 1.30858433 15.60032746 -0.87220108 22.9375 2.25 C25.59852558 4.50783989 26.81561184 6.54924787 27.25878906 10.03613281 C27.26104492 10.75124023 27.26330078 11.46634766 27.265625 12.203125 C27.27227173 13.41560913 27.27227173 13.41560913 27.27905273 14.65258789 C27.26946533 15.50973389 27.25987793 16.36687988 27.25 17.25 C27.23658569 18.57342407 27.23658569 18.57342407 27.22290039 19.92358398 C27.12351774 25.64606796 26.94132922 31.36043281 26.4375 37.0625 C26.28087891 38.96708984 26.28087891 38.96708984 26.12109375 40.91015625 C25 44 25 44 21.6875 45.890625 C17.65162889 47.10480656 14.17784672 47.63352222 10 48 C10.0721875 47.06542969 10.144375 46.13085938 10.21875 45.16796875 C10.97752224 34.42923379 11.10528838 23.76281168 11 13 C6.31272284 12.85737193 3.82741914 13.15677435 0 16 C-1.19769665 18.3953933 -1.2663208 20.19575387 -1.46484375 22.8671875 C-1.58182617 24.31931641 -1.58182617 24.31931641 -1.70117188 25.80078125 C-1.85810416 27.84219793 -2.01177645 29.88386797 -2.16210938 31.92578125 C-2.28102539 33.38177734 -2.28102539 33.38177734 -2.40234375 34.8671875 C-2.46929443 35.75519043 -2.53624512 36.64319336 -2.60522461 37.55810547 C-3.01799664 40.11131871 -3.60189222 41.828984 -5 44 C-7.71484375 45.265625 -7.71484375 45.265625 -10.9375 46.25 C-11.99839844 46.58515625 -13.05929687 46.9203125 -14.15234375 47.265625 C-17 48 -17 48 -20 48 C-19.48982524 37.48771478 -18.81455612 26.99326612 -18 16.5 C-17.9170166 15.39599854 -17.8340332 14.29199707 -17.74853516 13.15454102 C-17.66651855 12.12385498 -17.58450195 11.09316895 -17.5 10.03125 C-17.4278125 9.10892578 -17.355625 8.18660156 -17.28125 7.23632812 C-17 5 -17 5 -16 3 C-13.71027598 2.3689509 -11.39101298 1.84306657 -9.0625 1.375 C-7.79535156 1.11460937 -6.52820313 0.85421875 -5.22265625 0.5859375 C-2 0 -2 0 0 0 Z " fill="#050505" transform="translate(393,231)"/>
    <path d="M0 0 C4.47413236 2.46605721 7.51255818 5.77511637 9.8125 10.375 C9.94191722 15.08024047 9.50694934 18.46229515 6.625 22.25 C1.04895083 26.46301493 -3.98981709 28.53967181 -10.9375 28.4375 C-11.73671875 28.42847656 -12.5359375 28.41945313 -13.359375 28.41015625 C-13.96265625 28.39855469 -14.5659375 28.38695312 -15.1875 28.375 C-13.8785428 31.49697478 -13.8785428 31.49697478 -11.1875 33.375 C-4.39862518 34.13582218 1.4418516 32.6093819 7.8125 30.375 C8.09775482 33.7536849 8.23723956 37.00431039 7.8125 40.375 C5.75 42.375 5.75 42.375 2.8125 43.375 C1.265625 43.9628125 1.265625 43.9628125 -0.3125 44.5625 C-7.67895665 46.10707962 -14.71074407 46.58574471 -21.40234375 42.7109375 C-26.12903602 39.17367545 -29.36483993 35.00111052 -31.1875 29.375 C-32.03337187 21.41062203 -31.68624416 13.99258376 -26.74609375 7.47265625 C-19.68338907 -0.27829343 -10.06190089 -4.48451762 0 0 Z " fill="#050505" transform="translate(194.1875,233.625)"/>
    <path d="M0 0 C2.03382459 -0.00218196 4.06710118 -0.02038709 6.10083008 -0.03930664 C14.18782714 -0.05115861 21.81339436 0.53892509 29.7355957 2.18530273 C29.7355957 2.84530273 29.7355957 3.50530273 29.7355957 4.18530273 C33.3655957 4.18530273 36.9955957 4.18530273 40.7355957 4.18530273 C40.7355957 3.85530273 40.7355957 3.52530273 40.7355957 3.18530273 C47.07562679 3.74044973 52.84401052 4.82347465 58.9230957 6.68530273 C59.76517578 6.93940918 60.60725586 7.19351563 61.47485352 7.45532227 C71.82177779 10.68612755 81.78389721 14.91172481 91.7355957 19.18530273 C91.4055957 19.84530273 91.0755957 20.50530273 90.7355957 21.18530273 C88.7555957 20.19530273 88.7555957 20.19530273 86.7355957 19.18530273 C86.7355957 19.84530273 86.7355957 20.50530273 86.7355957 21.18530273 C88.7155957 21.84530273 90.6955957 22.50530273 92.7355957 23.18530273 C92.0755957 23.51530273 91.4155957 23.84530273 90.7355957 24.18530273 C90.4055957 24.84530273 90.0755957 25.50530273 89.7355957 26.18530273 C88.78942383 25.74959961 87.84325195 25.31389648 86.8684082 24.86499023 C79.51905425 21.53463783 72.14255913 18.48981706 64.4855957 15.93530273 C63.79095215 15.70182129 63.09630859 15.46833984 62.38061523 15.2277832 C29.94118783 4.66628473 -4.98480942 2.79638187 -38.2644043 10.18530273 C-38.97935059 10.34015137 -39.69429688 10.495 -40.4309082 10.65454102 C-66.02502454 16.35967235 -90.19392609 28.17432744 -110.70581055 44.40014648 C-113.02539841 46.01854596 -114.50606183 46.77641903 -117.2644043 47.18530273 C-116.9344043 46.19530273 -116.6044043 45.20530273 -116.2644043 44.18530273 C-116.8934668 44.7537793 -117.5225293 45.32225586 -118.1706543 45.90795898 C-122.35479376 49.68250649 -126.54282871 53.45262285 -130.7644043 57.18530273 C-131.3934668 57.74217773 -132.0225293 58.29905273 -132.6706543 58.87280273 C-134.2644043 60.18530273 -134.2644043 60.18530273 -136.2644043 61.18530273 C-129.79464807 46.75520919 -110.23274342 36.60703806 -97.32641602 28.49194336 C-95.34589741 27.2369427 -93.38272656 25.95921407 -91.42456055 24.66967773 C-90.5119043 24.07147217 -90.5119043 24.07147217 -89.58081055 23.46118164 C-87.9547874 22.39421712 -86.3302355 21.32501139 -84.70581055 20.25561523 C-76.78946398 15.34243143 -68.45070028 12.0012762 -59.6394043 9.06030273 C-57.66775456 8.39190315 -55.69639457 7.72264818 -53.7253418 7.05249023 C-52.79431641 6.73763672 -51.86329102 6.4227832 -50.90405273 6.09838867 C-48.51980038 5.27364729 -46.16022622 4.40534986 -43.8034668 3.50561523 C-38.90238063 1.6771747 -38.90238063 1.6771747 -36.2644043 1.18530273 C-35.2744043 1.68030273 -35.2744043 1.68030273 -34.2644043 2.18530273 C-32.4071225 2.12155827 -30.55203552 1.98515549 -28.7019043 1.81030273 C-27.71061523 1.72006836 -26.71932617 1.62983398 -25.69799805 1.53686523 C-23.23385899 1.28456431 -20.77427865 0.98612752 -18.3190918 0.65795898 C-12.22700005 -0.02114684 -6.12384812 -0.00073296 0 0 Z " fill="#5D7AFF" transform="translate(251.264404296875,47.814697265625)"/>
    <path d="M0 0 C-0.33 4.95 -0.66 9.9 -1 15 C2.63 15 6.26 15 10 15 C8.56 22.2 8.56 22.2 6 25 C3.03 25 0.06 25 -3 25 C-3 31.6 -3 38.2 -3 45 C1.49202386 45.89840477 3.68380697 45.90338924 8 45 C8.495 49.455 8.495 49.455 9 54 C1.76478449 56.72803208 -4.14448153 58.91605886 -12 58 C-15.6243998 55.88576678 -17.5257174 53.89028757 -19 50 C-19.16802169 47.39423983 -19.23583792 44.91308019 -19.1875 42.3125 C-19.18105469 41.60222656 -19.17460937 40.89195312 -19.16796875 40.16015625 C-19.09340364 35.05244605 -18.7229273 30.06049108 -18 25 C-20.31 25 -22.62 25 -25 25 C-24.49942848 20.61999924 -23.06806466 18.15830185 -20 15 C-19.01 15 -18.02 15 -17 15 C-16.67 11.04 -16.34 7.08 -16 3 C-10.41476561 1.05166242 -5.9420681 0 0 0 Z " fill="#050505" transform="translate(283,221)"/>
    <path d="M0 0 C1.23621094 -0.00128906 2.47242188 -0.00257812 3.74609375 -0.00390625 C5.02097656 -0.00003906 6.29585938 0.00382812 7.609375 0.0078125 C8.86878906 0.00394531 10.12820312 0.00007813 11.42578125 -0.00390625 C46.96934739 0.03300296 83.51241043 10.658925 113.359375 30.1328125 C112.699375 30.4628125 112.039375 30.7928125 111.359375 31.1328125 C108.9019677 30.01470733 106.55131483 28.83717483 104.171875 27.5703125 C76.38515925 13.26077972 47.10536721 6.73670491 15.92089844 6.81713867 C13.3608986 6.82031061 10.80204698 6.79667214 8.2421875 6.77148438 C-2.71070188 6.72924342 -12.93734505 7.84483804 -23.640625 10.1328125 C-25.14326904 10.43892456 -25.14326904 10.43892456 -26.67626953 10.7512207 C-38.41051582 13.2139238 -49.59067127 16.49258036 -60.640625 21.1328125 C-61.3634668 21.43058594 -62.08630859 21.72835937 -62.83105469 22.03515625 C-72.01248341 25.84199379 -80.68710993 30.02602276 -89.04711914 35.42700195 C-90.54539733 36.38258025 -92.08950601 37.26563471 -93.640625 38.1328125 C-94.300625 37.8028125 -94.960625 37.4728125 -95.640625 37.1328125 C-87.09956932 31.56091079 -78.5044719 26.18163372 -69.640625 21.1328125 C-85.99893221 29.75680592 -85.99893221 29.75680592 -101.49609375 39.8046875 C-103.640625 41.1328125 -103.640625 41.1328125 -106.640625 41.1328125 C-101.91668454 36.89425254 -97.04237332 33.18537805 -91.703125 29.7578125 C-90.96658691 29.28448486 -90.23004883 28.81115723 -89.47119141 28.32348633 C-77.52692276 20.78087826 -64.85641204 15.05194426 -51.640625 10.1328125 C-50.49722656 9.69066406 -49.35382813 9.24851562 -48.17578125 8.79296875 C-36.96230977 4.71646917 -25.40423168 2.90252053 -13.640625 1.1328125 C-12.5155957 0.95411621 -11.39056641 0.77541992 -10.23144531 0.59130859 C-6.77636961 0.15014513 -3.48070371 0.00354244 0 0 Z " fill="#617DFF" transform="translate(244.640625,55.8671875)"/>
    <path d="M0 0 C-0.22659888 7.67310703 -0.57472492 15.33533905 -1 23 C-1.03911499 23.70668823 -1.07822998 24.41337646 -1.11853027 25.14147949 C-1.37916574 29.74620689 -1.68030041 34.34623001 -2.02255249 38.94561768 C-2.13241005 40.48037146 -2.2322261 42.01587742 -2.32192993 43.55194092 C-2.45155349 45.73031155 -2.61777802 47.90300698 -2.79296875 50.078125 C-2.8808667 51.34043945 -2.96876465 52.60275391 -3.05932617 53.90332031 C-4 57 -4 57 -6.84887695 58.85839844 C-11.68812888 60.61158214 -15.8201491 62 -21 62 C-20.85969417 58.33310028 -20.71174579 54.66654588 -20.5625 51 C-20.52318359 49.97003906 -20.48386719 48.94007813 -20.44335938 47.87890625 C-20.26252246 43.51099933 -20.07963073 39.17859615 -19.49609375 34.84375 C-18.92176734 30.39385086 -18.69413991 25.97959872 -18.5 21.5 C-18.24489517 15.61369234 -17.80351498 9.83887552 -17 4 C-15.58398286 3.51891725 -14.16715563 3.04021859 -12.75 2.5625 C-11.96109375 2.29566406 -11.1721875 2.02882812 -10.359375 1.75390625 C-6.64940884 0.56843693 -3.9565059 0 0 0 Z " fill="#040404" transform="translate(105,218)"/>
    <path d="M0 0 C0 3.60643025 -0.52633763 3.87089032 -2.9375 6.375 C-19.7988958 25.03449234 -31.85547794 50.07285552 -39 74 C-39.31839844 75.03898437 -39.63679688 76.07796875 -39.96484375 77.1484375 C-40.65778101 79.4284246 -41.33754038 81.71101351 -42 84 C-42.66 84 -43.32 84 -44 84 C-43.91621094 84.556875 -43.83242187 85.11375 -43.74609375 85.6875 C-42.87991362 92.1783688 -42.22019928 98.33029893 -46 104 C-46.4595503 106.70818999 -46.4595503 106.70818999 -46.6328125 109.76171875 C-46.71660156 110.87998047 -46.80039063 111.99824219 -46.88671875 113.15039062 C-46.96535156 114.31763672 -47.04398437 115.48488281 -47.125 116.6875 C-47.21136719 117.86634766 -47.29773438 119.04519531 -47.38671875 120.25976562 C-47.59899778 123.1727056 -47.8030944 126.08598705 -48 129 C-50.51703313 126.81127554 -51.475587 125.29586336 -52 122 C-53.24408841 101.52352854 -50.03025976 81.24507685 -43 62 C-42.59394531 60.845 -42.18789062 59.69 -41.76953125 58.5 C-38.71763082 50.33773257 -34.9147091 42.62053752 -30.9375 34.875 C-30.43081787 33.87847412 -29.92413574 32.88194824 -29.40209961 31.85522461 C-26.75304433 26.79817247 -24.29017405 22.85563873 -20 19 C-18.37218005 17.08232976 -16.76747267 15.14477957 -15.1875 13.1875 C-14.39730469 12.21167969 -13.60710937 11.23585937 -12.79296875 10.23046875 C-12.20128906 9.49441406 -11.60960937 8.75835937 -11 8 C-11 12.03381023 -12.59573562 13.49433637 -15 16.6875 C-15.7425 17.68136719 -16.485 18.67523438 -17.25 19.69921875 C-18.11625 20.83810547 -18.11625 20.83810547 -19 22 C-18.21496094 21.00033203 -18.21496094 21.00033203 -17.4140625 19.98046875 C-14.47789253 16.35539159 -11.43478139 12.83329756 -8.375 9.3125 C-7.78976563 8.63638672 -7.20453125 7.96027344 -6.6015625 7.26367188 C-2.26051457 2.26051457 -2.26051457 2.26051457 0 0 Z " fill="#E9EDFF" transform="translate(114,124)"/>
    <path d="M0 0 C0.97122803 -0.00193359 1.94245605 -0.00386719 2.94311523 -0.00585938 C4.49107788 0.0009082 4.49107788 0.0009082 6.0703125 0.0078125 C7.1106665 0.00974609 8.15102051 0.01167969 9.22290039 0.01367188 C16.261113 0.05326491 23.20181958 0.2905854 30.1953125 1.1328125 C26.4489054 3.50622582 22.57945071 3.61134387 18.2734375 3.87890625 C17.49579041 3.93554947 16.71814331 3.99219269 15.91693115 4.05055237 C12.6090405 4.29139393 9.29995595 4.51310392 5.99072266 4.73461914 C-5.15269642 5.49414349 -15.87033615 6.81328627 -26.8046875 9.1328125 C-28.08230957 9.39010132 -28.08230957 9.39010132 -29.38574219 9.65258789 C-59.26057816 15.76334979 -89.10156422 30.78665469 -111.8046875 51.1328125 C-112.31112793 51.58575684 -112.81756836 52.03870117 -113.33935547 52.50537109 C-118.62741538 57.25073847 -123.7924179 62.09552325 -128.8046875 67.1328125 C-129.35511719 67.6484375 -129.90554687 68.1640625 -130.47265625 68.6953125 C-140.68622798 78.35750889 -148.14016168 90.4539214 -155.60449219 102.25341797 C-157.29890715 104.90671463 -159.0471272 107.52099615 -160.8046875 110.1328125 C-161.1346875 109.4728125 -161.4646875 108.8128125 -161.8046875 108.1328125 C-161.06713867 106.38378906 -161.06713867 106.38378906 -159.84765625 104.2734375 C-159.17573242 103.10470093 -159.17573242 103.10470093 -158.49023438 101.91235352 C-157.99587891 101.07760498 -157.50152344 100.24285645 -156.9921875 99.3828125 C-156.48880859 98.52679443 -155.98542969 97.67077637 -155.46679688 96.78881836 C-146.77692013 82.20165544 -136.92348412 68.88054537 -123.8046875 57.95703125 C-121.39883407 55.76262978 -119.36171556 53.35443322 -117.2421875 50.8828125 C-106.9048814 39.36364976 -93.25890537 31.51457824 -79.8046875 24.1328125 C-79.15419434 23.77590332 -78.50370117 23.41899414 -77.83349609 23.05126953 C-69.76748342 18.69165009 -61.47765383 15.068602 -52.9296875 11.7578125 C-52.07407227 11.42378418 -51.21845703 11.08975586 -50.33691406 10.74560547 C-44.56609672 8.57680506 -38.8756012 7.17392688 -32.8046875 6.1328125 C-31.86238281 5.95878906 -30.92007813 5.78476562 -29.94921875 5.60546875 C-29.17964844 5.47011719 -28.41007813 5.33476563 -27.6171875 5.1953125 C-22.98432164 4.3590072 -18.36128862 3.47912382 -13.7421875 2.5703125 C-12.47246094 2.32152344 -11.20273438 2.07273438 -9.89453125 1.81640625 C-1.69422711 0.00217967 -1.69422711 0.00217967 0 0 Z " fill="#F2F4FF" transform="translate(234.8046875,35.8671875)"/>
    <path d="M0 0 C-0.48043607 13.74320591 -1.37572298 27.34345728 -3 41 C-5.29032311 41.83719383 -7.58210957 42.6698929 -9.875 43.5 C-10.52597656 43.73847656 -11.17695313 43.97695313 -11.84765625 44.22265625 C-16.7734375 46 -16.7734375 46 -19 46 C-19.21738241 36.88805382 -18.37018212 27.93112351 -17.5 18.875 C-17.35504592 17.3307688 -17.21051141 15.78649815 -17.06640625 14.2421875 C-16.7157706 10.49431961 -16.35947018 6.74703043 -16 3 C-10.48708509 1.13455699 -5.8274663 -0.0581777 0 0 Z " fill="#060606" transform="translate(315,233)"/>
    <path d="M0 0 C0.99 0.33 1.98 0.66 3 1 C3.12528076 2.11632812 3.25056152 3.23265625 3.37963867 4.3828125 C9.08973468 54.86451482 18.69786885 103.37396245 53 143 C53.79019531 143.92296875 54.58039063 144.8459375 55.39453125 145.796875 C61.29424615 152.50315614 67.35467942 158.25072864 75.0625 162.8125 C75.701875 163.204375 76.34125 163.59625 77 164 C77 164.66 77 165.32 77 166 C63.20093013 164.11170623 48.80130124 144.87388577 40.8125 134.375 C28.2826055 117.27316072 20.0205931 98.92330475 13 79 C12.71511719 78.20207031 12.43023437 77.40414062 12.13671875 76.58203125 C7.75600907 64.24864861 4.78871628 51.88187693 2.875 38.9375 C2.70613281 37.84373047 2.53726563 36.74996094 2.36328125 35.62304688 C0.91224382 26.01992118 -0.15166097 16.53104581 -0.0625 6.8125 C-0.05347656 5.51957031 -0.04445313 4.22664062 -0.03515625 2.89453125 C-0.02355469 1.93933594 -0.01195313 0.98414063 0 0 Z " fill="#F0F3FF" transform="translate(31,251)"/>
    <path d="M0 0 C3.96287721 0.38104589 5.4323945 1.57539752 8.25 4.3125 C10.473759 8.76001801 9.75332264 14.4841142 9.25 19.3125 C8.01345059 22.5541085 7.18711441 23.17085407 4.25 25.3125 C1.12240281 26.14239708 -0.40363233 25.89678642 -3.75 25.3125 C-6.49876748 22.6558429 -7.63606935 20.98184254 -8.28125 17.19140625 C-8.1279612 0.92363195 -8.1279612 0.92363195 0 0 Z " fill="#F9F9F9" transform="translate(343.75,242.6875)"/>
    <path d="M0 0 C1.98889171 2.98333757 2.87659991 5.36169452 3.9609375 8.7578125 C13.23732793 37.12966826 24.95870528 62.62531625 45 85 C45.48758789 85.54930176 45.97517578 86.09860352 46.47753906 86.66455078 C63.87350917 106.19676868 84.35260398 122.62120739 108 134 C106.31689453 134.66772461 106.31689453 134.66772461 104 135 C101.59326172 133.95532227 101.59326172 133.95532227 98.9296875 132.31640625 C97.95 131.71763672 96.9703125 131.11886719 95.9609375 130.50195312 C94.43339844 129.54192383 94.43339844 129.54192383 92.875 128.5625 C91.87984375 127.95728516 90.8846875 127.35207031 89.859375 126.72851562 C84.00341038 123.10867327 78.61688445 119.19888457 73.30932617 114.81958008 C71.22489097 113.17719763 69.15065386 111.7957628 66.87109375 110.4453125 C62.43436326 107.7754807 58.79744174 104.44006816 55.0625 100.875 C54.36374756 100.21338867 53.66499512 99.55177734 52.94506836 98.87011719 C47.44118987 93.58301746 42.66688059 88.0405628 38 82 C36.50021708 80.24981396 35.0002119 78.49981835 33.5 76.75 C18.20503463 57.97044252 0 24.54152224 0 0 Z " fill="#ECF0FF" transform="translate(55,295)"/>
    <path d="M0 0 C-1.09957031 0.56847656 -2.19914062 1.13695313 -3.33203125 1.72265625 C-19.23332997 9.82990658 -19.23332997 9.82990658 -33 21 C-34.91767024 22.62781995 -36.85522043 24.23252733 -38.8125 25.8125 C-39.78832031 26.60269531 -40.76414063 27.39289063 -41.76953125 28.20703125 C-42.87361328 29.09455078 -42.87361328 29.09455078 -44 30 C-44.66 29.67 -45.32 29.34 -46 29 C-45.01 27.68 -44.02 26.36 -43 25 C-54.01753369 33.50372095 -54.01753369 33.50372095 -63 44 C-63.66 44 -64.32 44 -65 44 C-65.309375 44.61875 -65.61875 45.2375 -65.9375 45.875 C-66.625 47.25 -67.3125 48.625 -68 50 C-68.66 50 -69.32 50 -70 50 C-70 51.32 -70 52.64 -70 54 C-71.06640625 55.82421875 -71.06640625 55.82421875 -72.5625 57.6875 C-73.37267578 58.71423828 -73.37267578 58.71423828 -74.19921875 59.76171875 C-74.79347656 60.50035156 -75.38773438 61.23898438 -76 62 C-77.29348052 63.66525935 -78.58518046 65.33190345 -79.875 67 C-80.91596693 68.33387971 -81.95737583 69.66741527 -83 71 C-83 66.96618977 -81.40426438 65.50566363 -79 62.3125 C-78.2575 61.31863281 -77.515 60.32476562 -76.75 59.30078125 C-76.1725 58.54152344 -75.595 57.78226563 -75 57 C-79.21814817 60.9700218 -82.61227103 65.30840284 -86 70 C-86 65.89455036 -83.90673191 63.6797194 -81.5625 60.5 C-80.87861206 59.56124023 -80.87861206 59.56124023 -80.1809082 58.60351562 C-70.64077586 45.61635888 -60.05147561 32.64740012 -47.5859375 22.33203125 C-45.96221078 20.96826078 -44.4784294 19.5187502 -43 18 C-42.34 18.33 -41.68 18.66 -41 19 C-41.33 19.66 -41.66 20.32 -42 21 C-37.22593528 19.3808889 -33.39623992 16.72576784 -29.25 13.9375 C-23.17915599 9.93822993 -17.02926972 6.19253745 -10.625 2.75 C-9.90602539 2.35546631 -9.18705078 1.96093262 -8.44628906 1.55444336 C-3.36435036 -1.12145012 -3.36435036 -1.12145012 0 0 Z " fill="#DBE1FF" transform="translate(178,77)"/>
    <path d="M0 0 C0 3 0 3 -2.2734375 5.3828125 C-3.29993763 6.30512599 -4.3343645 7.21866538 -5.375 8.125 C-6.1959314 8.85904053 -6.1959314 8.85904053 -7.03344727 9.60791016 C-8.6819912 11.08003811 -10.3394893 12.5413952 -12 14 C-23.59407153 24.23525341 -34.49660869 34.76438369 -44 47 C-44.85361165 48.07465984 -45.70780105 49.14886096 -46.5625 50.22265625 C-51.05184189 55.91015583 -55.21368681 61.62877451 -58.74609375 67.9765625 C-60 70 -60 70 -61.45068359 71.40307617 C-63.0480844 73.04956194 -63.98592693 74.54677788 -65.04296875 76.57421875 C-65.39423828 77.24130859 -65.74550781 77.90839844 -66.10742188 78.59570312 C-66.46384766 79.28599609 -66.82027344 79.97628906 -67.1875 80.6875 C-67.55552734 81.38939453 -67.92355469 82.09128906 -68.30273438 82.81445312 C-69.2067894 84.54037635 -70.10406601 86.26984719 -71 88 C-72.17412097 84.47763709 -71.86503488 84.08400292 -70.296875 80.89453125 C-69.89903809 80.0835498 -69.50120117 79.27256836 -69.09130859 78.43701172 C-68.64867676 77.57092285 -68.20604492 76.70483398 -67.75 75.8125 C-67.29834473 74.92062988 -66.84668945 74.02875977 -66.38134766 73.10986328 C-61.94684378 64.55945687 -56.76470118 56.70279462 -51 49 C-50.31164062 48.07960937 -49.62328125 47.15921875 -48.9140625 46.2109375 C-43.66681385 39.46447495 -37.86597415 33.20645707 -32 27 C-30.79537109 25.71416016 -30.79537109 25.71416016 -29.56640625 24.40234375 C-22.92964379 17.52582961 -15.60604148 11.74652766 -8 6 C-7.11828125 5.33097656 -6.2365625 4.66195312 -5.328125 3.97265625 C-3.55884237 2.63942023 -1.78080996 1.31779937 0 0 Z " fill="#718BFF" transform="translate(123,64)"/>
    <path d="M0 0 C3.13834969 2.94504554 3.95613395 4.51451621 4.34765625 8.84765625 C4.27516694 10.25394884 4.17954774 11.65921337 4.0625 13.0625 C4.03865234 13.76955078 4.01480469 14.47660156 3.99023438 15.20507812 C3.73448863 18.93616336 3.25444933 20.72890046 0.671875 23.48046875 C-2.72158624 25.4103758 -5.15887633 25.3012646 -9 25 C-11.74921286 19.61612482 -12.98269914 15.05641755 -12 9 C-9.80321266 3.32496603 -6.57718394 -1.12293384 0 0 Z " fill="#F6F6F6" transform="translate(137,243)"/>
    <path d="M0 0 C0.33 0 0.66 0 1 0 C1.01458252 0.8029248 1.02916504 1.60584961 1.04418945 2.43310547 C1.97530145 48.71233273 9.61427907 91.45762257 31 133 C29.15014648 132.76464844 29.15014648 132.76464844 27 132 C25.70727539 130.16503906 25.70727539 130.16503906 24.59765625 127.765625 C24.18467285 126.88753174 23.77168945 126.00943848 23.34619141 125.10473633 C22.92257324 124.16267334 22.49895508 123.22061035 22.0625 122.25 C21.40000244 120.81660278 21.40000244 120.81660278 20.72412109 119.35424805 C17.97336121 113.34108897 15.39159311 107.29812434 13.1328125 101.08203125 C12.48666286 99.3240586 11.82014509 97.57255387 11.09375 95.84619141 C8.34130546 89.27367951 6.44015264 82.66582864 4.75 75.75 C4.481875 74.70070313 4.21375 73.65140625 3.9375 72.5703125 C3.68484375 71.55195313 3.4321875 70.53359375 3.171875 69.484375 C2.9459668 68.57397461 2.72005859 67.66357422 2.48730469 66.72558594 C1.95837603 63.76718937 1.91733331 60.99914755 2 58 C1.67 58 1.34 58 1 58 C1 55.69 1 53.38 1 51 C0.67 51 0.34 51 0 51 C0 34.17 0 17.34 0 0 Z " fill="#607DFF" transform="translate(30,235)"/>
    <path d="M0 0 C2.21719731 0.52411836 4.437949 1.0202438 6.66357422 1.50683594 C15.17064575 3.5204533 22.75366749 6.72261545 30.61157227 10.5234375 C35.39903349 12.80634057 39.32406846 13.99278086 44.57373047 14.60839844 C45.56373047 15.59839844 45.56373047 15.59839844 46.57373047 16.60839844 C39.94427553 18.81821675 32.17515074 14.36285036 26.01123047 11.79589844 C-8.41364753 -2.18496552 -44.51619105 -7.00835264 -81.42626953 -1.39160156 C-81.09626953 -0.73160156 -80.76626953 -0.07160156 -80.42626953 0.60839844 C-82.46698469 0.94750837 -84.50889575 1.27942548 -86.55126953 1.60839844 C-88.25669922 1.88683594 -88.25669922 1.88683594 -89.99658203 2.17089844 C-93.21586186 2.58155828 -96.18858884 2.8336284 -99.42626953 2.60839844 C-100.08626953 1.94839844 -100.74626953 1.28839844 -101.42626953 0.60839844 C-68.49896494 -10.31571909 -33.26665003 -7.90874103 0 0 Z " fill="#DDE3FF" transform="translate(316.42626953125,48.3916015625)"/>
    <path d="M0 0 C3.3178057 0.62208857 4.66171983 1.15320915 7 3.5625 C7.20703125 6.453125 7.20703125 6.453125 6.8125 9.8125 C6.68101562 10.96878906 6.54953125 12.12507812 6.4140625 13.31640625 C6.27742187 14.38761719 6.14078125 15.45882813 6 16.5625 C5.94585937 17.33464844 5.89171875 18.10679687 5.8359375 18.90234375 C5.6875 20.75 5.6875 20.75 5 23.5625 C2.80399187 25.36636382 1.23297562 25.52840601 -1.5625 25.9375 C-4 25.5625 -4 25.5625 -5.625 24 C-7.51799434 20.6442373 -7.43367308 18.02207448 -7.4375 14.1875 C-7.45683594 12.90101563 -7.47617188 11.61453125 -7.49609375 10.2890625 C-6.8192553 5.20477996 -5.37737992 1.00825873 0 0 Z " fill="#F6F6F6" transform="translate(232,242.4375)"/>
    <path d="M0 0 C0 3.60643025 -0.52633763 3.87089032 -2.9375 6.375 C-20.65423482 25.98104457 -32.37797652 51.9818288 -40 77 C-41.09889643 73.70190247 -40.88731301 71.74026017 -39.85546875 68.4453125 C-39.59056641 67.58292969 -39.32566406 66.72054687 -39.05273438 65.83203125 C-38.76720703 64.93871094 -38.48167969 64.04539062 -38.1875 63.125 C-37.91357422 62.23941406 -37.63964844 61.35382813 -37.35742188 60.44140625 C-36.2199167 56.78065819 -35.05679339 53.15508288 -33.73828125 49.5546875 C-32.71352256 46.91413361 -32.71352256 46.91413361 -34 44 C-32.78885539 40.56610185 -30.95804928 37.39848654 -29.25 34.1875 C-28.7557251 33.2500293 -28.2614502 32.31255859 -27.75219727 31.34667969 C-16.99213059 11.4960653 -16.99213059 11.4960653 -10 8 C-11.61674681 11.42946293 -13.57597677 14.56263052 -15.625 17.75 C-16.25664063 18.73484375 -16.88828125 19.7196875 -17.5390625 20.734375 C-18.02117187 21.48203125 -18.50328125 22.2296875 -19 23 C-18.46632813 22.26136719 -17.93265625 21.52273437 -17.3828125 20.76171875 C-11.98512924 13.41227805 -6.25721126 6.63604033 0 0 Z " fill="#6E88FF" transform="translate(114,124)"/>
    <path d="M0 0 C0.97122803 -0.00193359 1.94245605 -0.00386719 2.94311523 -0.00585938 C4.49107788 0.0009082 4.49107788 0.0009082 6.0703125 0.0078125 C7.1106665 0.00974609 8.15102051 0.01167969 9.22290039 0.01367188 C16.261113 0.05326491 23.20181958 0.2905854 30.1953125 1.1328125 C26.4489054 3.50622582 22.57945071 3.61134387 18.2734375 3.87890625 C17.49579041 3.93554947 16.71814331 3.99219269 15.91693115 4.05055237 C12.6090405 4.29139393 9.29995595 4.51310392 5.99072266 4.73461914 C-3.92829837 5.41068974 -13.55243697 6.43152157 -23.29785156 8.43383789 C-33.06269299 10.380144 -33.06269299 10.380144 -36.8046875 9.1328125 C-39.93949165 9.93074134 -39.93949165 9.93074134 -43.44140625 11.22265625 C-44.08084671 11.44603165 -44.72028717 11.66940704 -45.37910461 11.89955139 C-47.41989932 12.61465798 -49.45597039 13.34228627 -51.4921875 14.0703125 C-52.87535846 14.55747214 -54.25881899 15.04381044 -55.64257812 15.52929688 C-59.03335926 16.72095804 -62.42001706 17.92388875 -65.8046875 19.1328125 C-65.8046875 18.4728125 -65.8046875 17.8128125 -65.8046875 17.1328125 C-62.6827045 15.85448089 -59.55657628 14.58659158 -56.4296875 13.3203125 C-55.55957031 12.96388672 -54.68945312 12.60746094 -53.79296875 12.24023438 C-38.94246425 6.24503071 -38.94246425 6.24503071 -31.3671875 5.6953125 C-26.08108473 5.29652144 -20.98186263 4.22804908 -15.8046875 3.1328125 C-14.95463135 2.95435791 -14.1045752 2.77590332 -13.22875977 2.59204102 C-1.19266232 0.00153439 -1.19266232 0.00153439 0 0 Z " fill="#DEE4FF" transform="translate(234.8046875,35.8671875)"/>
    <path d="M0 0 C2.34165499 -0.26871451 4.67884289 -0.59038404 7 -1 C4.56788794 0.62140804 2.92372181 1.48483642 0.2421875 2.40234375 C-0.46550781 2.65306641 -1.17320312 2.90378906 -1.90234375 3.16210938 C-3.38987632 3.68104649 -4.87949877 4.19402958 -6.37109375 4.70117188 C-8.27960495 5.38328145 -10.14461606 6.1843782 -12 7 C-12.33 7.99 -12.66 8.98 -13 10 C-15.36766814 11.16274797 -17.67690456 12.16322797 -20.125 13.125 C-26.93416259 15.91977093 -33.11849023 19.25403869 -39.30126953 23.24267578 C-40.83467549 24.21558096 -42.41393105 25.11554332 -44 26 C-44.66 25.67 -45.32 25.34 -46 25 C-37.45894432 19.42809829 -28.8638469 14.04882122 -20 9 C-36.35830721 17.62399342 -36.35830721 17.62399342 -51.85546875 27.671875 C-54 29 -54 29 -57 29 C-52.27599123 24.76137876 -47.40152961 21.05300243 -42.0625 17.625 C-41.32813721 17.15239746 -40.59377441 16.67979492 -39.8371582 16.19287109 C-32.49270155 11.55004953 -24.88480401 7.633194 -17 4 C-15.27136719 3.18982422 -15.27136719 3.18982422 -13.5078125 2.36328125 C-5.28749828 -1.30470737 -5.28749828 -1.30470737 0 0 Z " fill="#6D87FF" transform="translate(195,68)"/>
    <path d="M0 0 C0.02685938 2.14576637 0.04633088 4.29162645 0.0625 6.4375 C0.07410156 7.63246094 0.08570313 8.82742187 0.09765625 10.05859375 C0 13 0 13 -1 14 C-2.57263797 14.39898408 -4.15895601 14.74476192 -5.75 15.0625 C-6.61109375 15.23910156 -7.4721875 15.41570312 -8.359375 15.59765625 C-11 16 -11 16 -16 16 C-16 11.71 -16 7.42 -16 3 C-4.5 0 -4.5 0 0 0 Z " fill="#090909" transform="translate(317,212)"/>
    <path d="M0 0 C-2.49646515 3.74469772 -5.05604157 4.31777059 -9.125 5.6875 C-26.38072301 11.85805918 -43.08226408 20.87644372 -57.203125 32.625 C-59.05044135 34.0385986 -60.89115129 35.02955635 -63 36 C-57.13653142 21.60784985 -33.75799184 11.33208171 -20.32617188 5.55078125 C-16.56996004 3.98058547 -12.80492456 2.44842848 -9 1 C-7.89011719 0.5771875 -6.78023437 0.154375 -5.63671875 -0.28125 C-3 -1 -3 -1 0 0 Z " fill="#F1F4FF" transform="translate(198,63)"/>
    <path d="M0 0 C0.78760712 -0.00340393 1.57521423 -0.00680786 2.38668823 -0.01031494 C12.84672025 -0.03613044 22.91603547 0.64274084 33.25 2.3125 C33.25 2.6425 33.25 2.9725 33.25 3.3125 C30.28 3.3125 27.31 3.3125 24.25 3.3125 C27.88 3.9725 31.51 4.6325 35.25 5.3125 C35.25 5.6425 35.25 5.9725 35.25 6.3125 C34.37085938 6.2403125 33.49171875 6.168125 32.5859375 6.09375 C22.63848662 5.38742213 12.72181015 5.20088131 2.75 5.1875 C1.46270996 5.18298828 0.17541992 5.17847656 -1.15087891 5.17382812 C-7.11997807 5.1831415 -12.95196482 5.31717246 -18.87255859 6.08984375 C-21.52465296 6.40437042 -24.14464232 6.40877035 -26.8125 6.375 C-27.75222656 6.36597656 -28.69195312 6.35695313 -29.66015625 6.34765625 C-30.34980469 6.33605469 -31.03945312 6.32445312 -31.75 6.3125 C-31.75 5.9825 -31.75 5.6525 -31.75 5.3125 C-23.09331879 4.10920963 -14.46553604 3.00104547 -5.75 2.3125 C-15.19600033 2.74706176 -24.45420103 3.39363216 -33.796875 4.91015625 C-36.49587336 5.27787693 -39.0313279 5.38801867 -41.75 5.3125 C-30.0334968 -1.5444866 -13.11639451 0.01338424 0 0 Z " fill="#CBD4FF" transform="translate(258.75,22.6875)"/>
    <path d="M0 0 C0.33 0.66 0.66 1.32 1 2 C0.1080818 4.20958125 -0.84454564 6.29245712 -1.90234375 8.421875 C-2.54882504 9.76066792 -3.19497016 11.09962321 -3.84082031 12.4387207 C-4.35497498 13.49453842 -4.35497498 13.49453842 -4.8795166 14.57168579 C-9.93745099 24.9856208 -14.84737571 35.40034563 -18.75 46.3125 C-19.04769287 47.14426758 -19.34538574 47.97603516 -19.65209961 48.83300781 C-21.72076369 54.81144095 -23.39493131 60.88266389 -25 67 C-25.66 66.67 -26.32 66.34 -27 66 C-26.42658006 59.11896067 -24.59681132 53.02035299 -22.375 46.5 C-22.02179687 45.45005859 -21.66859375 44.40011719 -21.3046875 43.31835938 C-18.33711306 34.65410185 -14.8979097 26.28305812 -11 18 C-10.34 18 -9.68 18 -9 18 C-8.61714844 16.71222656 -8.61714844 16.71222656 -8.2265625 15.3984375 C-6.94321828 11.84267486 -5.31784652 8.86307753 -3.375 5.625 C-2.74335937 4.56539062 -2.11171875 3.50578125 -1.4609375 2.4140625 C-0.73777344 1.21910156 -0.73777344 1.21910156 0 0 Z " fill="#DBE2FF" transform="translate(61,134)"/>
    <path d="M0 0 C7.88892041 0.53788094 15.05545849 3.09284147 22.5 5.625 C23.16918457 5.85064636 23.83836914 6.07629272 24.52783203 6.30877686 C39.87448325 11.49401515 54.1011016 17.63894393 68 26 C67.34 26.33 66.68 26.66 66 27 C64.19433594 26.32250977 64.19433594 26.32250977 61.984375 25.19140625 C61.15623291 24.77777832 60.32809082 24.36415039 59.47485352 23.93798828 C58.57565186 23.48407715 57.6764502 23.03016602 56.75 22.5625 C39.38400344 14.0456008 19.50575999 5.34522483 0 4 C0 2.66666667 0 1.33333333 0 0 Z " fill="#6984FF" transform="translate(307,26)"/>
    <path d="M0 0 C0 0.33 0 0.66 0 1 C-6.51451827 1.81969572 -12.94441038 2.06983626 -19.5 1.9921875 C-20.26087418 1.98322449 -21.02174835 1.97426147 -21.80567932 1.96502686 C-23.39097712 1.94519613 -24.97626871 1.92486267 -26.56155396 1.90405273 C-39.15912363 1.75395967 -51.36002629 1.77644629 -63.75390625 4.34375 C-67 5 -67 5 -71 5 C-71 5.66 -71 6.32 -71 7 C-73.64 7.33 -76.28 7.66 -79 8 C-79 7.34 -79 6.68 -79 6 C-80.32 5.67 -81.64 5.34 -83 5 C-55.31352728 -0.83171102 -28.1937198 -2.11925947 0 0 Z " fill="#7890FF" transform="translate(288,22)"/>
    <path d="M0 0 C0.66 0 1.32 0 2 0 C2.33 1.32 2.66 2.64 3 4 C3.66 4 4.32 4 5 4 C5 8.29 5 12.58 5 17 C6.32 17 7.64 17 9 17 C8.71572583 18.58467728 8.42225182 20.1677057 8.125 21.75 C7.96257812 22.63171875 7.80015625 23.5134375 7.6328125 24.421875 C7.03203736 26.86947744 6.22002883 28.80599857 5 31 C4.34 30.67 3.68 30.34 3 30 C2.37437523 27.00957346 1.86749099 24.0820805 1.4375 21.0625 C1.30891602 20.19963379 1.18033203 19.33676758 1.04785156 18.44775391 C0.19736381 12.64410418 -0.62219567 6.85596707 -1 1 C-0.67 0.67 -0.34 0.34 0 0 Z " fill="#6681FF" transform="translate(438,260)"/>
    <path d="M0 0 C0 3 0 3 -2.2734375 5.3828125 C-3.29993763 6.30512599 -4.3343645 7.21866538 -5.375 8.125 C-6.1959314 8.85904053 -6.1959314 8.85904053 -7.03344727 9.60791016 C-8.6819912 11.08003811 -10.3394893 12.5413952 -12 14 C-22.86031795 23.5874953 -33.29775368 33.38936936 -42.1953125 44.85546875 C-44 47 -44 47 -47 49 C-45.26452224 44.76122705 -42.28227471 41.60031485 -39.3125 38.1875 C-38.77520264 37.56311035 -38.23790527 36.9387207 -37.68432617 36.29541016 C-34.3683108 32.4727328 -30.97242777 28.81946052 -27.20703125 25.4296875 C-25.85322355 24.05559048 -25.85322355 24.05559048 -25.59790039 22.08154297 C-24.56858269 18.49805473 -21.41117737 16.5439843 -18.625 14.25 C-18.00028809 13.7250293 -17.37557617 13.20005859 -16.73193359 12.65917969 C-11.34081468 8.17458064 -5.76216808 3.99823908 0 0 Z " fill="#B8C4FF" transform="translate(123,64)"/>
    <path d="M0 0 C0.33 0 0.66 0 1 0 C1.01458252 0.8029248 1.02916504 1.60584961 1.04418945 2.43310547 C1.43840699 22.02697074 2.62178179 41.28380272 5.55859375 60.69140625 C6.08058825 64.60405529 6.34265006 68.4982215 6.5625 72.4375 C6.60568359 73.16904297 6.64886719 73.90058594 6.69335938 74.65429688 C6.79816821 76.43604715 6.89945521 78.21800402 7 80 C5.23823164 76.7981775 4.26648671 73.66393208 3.375 70.125 C3.11460938 69.11695313 2.85421875 68.10890625 2.5859375 67.0703125 C1.99417754 63.9694903 1.89661867 61.14843131 2 58 C1.67 58 1.34 58 1 58 C1 55.69 1 53.38 1 51 C0.67 51 0.34 51 0 51 C0 34.17 0 17.34 0 0 Z " fill="#8198FF" transform="translate(30,235)"/>
    <path d="M0 0 C16.88682057 2.41240294 35.09119626 14.43495516 49 24 C48.505 25.485 48.505 25.485 48 27 C44.18078224 25.89667042 41.57795972 25.06899967 39 22 C36.9490555 19.76898632 35.06746037 18.3491646 32.35473633 17.00708008 C31.63421585 16.64693314 30.91369537 16.28678619 30.17134094 15.91572571 C29.39936874 15.53748154 28.62739655 15.15923737 27.83203125 14.76953125 C27.03721848 14.37424728 26.2424057 13.97896332 25.42350769 13.57170105 C22.88927004 12.31296508 20.35098366 11.06264736 17.8125 9.8125 C16.0915232 8.95953632 14.37081671 8.10602705 12.65039062 7.25195312 C8.43670178 5.16162947 4.21936289 3.07884509 0 1 C0 0.67 0 0.34 0 0 Z " fill="#6682FF" transform="translate(345,44)"/>
    <path d="M0 0 C13.12010292 13.12010292 13.60116969 45.55117402 14 63 C11.65819127 60.65819127 11.65526398 59.89382274 11.2890625 56.6953125 C11.18094238 55.81182129 11.07282227 54.92833008 10.96142578 54.01806641 C10.79489502 52.58599854 10.79489502 52.58599854 10.625 51.125 C8.75528357 36.42474561 6.31793498 22.00600123 1.57470703 7.93408203 C0.63225912 5.1378324 0 2.97859081 0 0 Z " fill="#8197FF" transform="translate(442,191)"/>
    <path d="M0 0 C0.66 0.33 1.32 0.66 2 1 C2 1.66 2 2.32 2 3 C0.49373047 3.74443359 0.49373047 3.74443359 -1.04296875 4.50390625 C-13.28844868 10.5754477 -25.35149978 16.59281553 -36.5390625 24.49609375 C-39 26 -39 26 -42 26 C-37.27581163 21.76121761 -32.40095945 18.05414722 -27.0625 14.625 C-26.33538818 14.15529785 -25.60827637 13.6855957 -24.85913086 13.20166016 C-17.51947409 8.54901859 -9.85133867 4.70290122 -2 1 C-1.34 0.67 -0.68 0.34 0 0 Z " fill="#607DFF" transform="translate(180,71)"/>
    <path d="M0 0 C14.93777119 5.56505201 33.80885897 19.9573332 43 33 C39.91574957 31.62091886 37.80338486 30.020948 35.375 27.6875 C24.39672028 17.74183075 11.7638177 9.46435275 -1 2 C-0.67 1.34 -0.34 0.68 0 0 Z " fill="#6782FF" transform="translate(371,67)"/>
    <path d="M0 0 C7.75427859 0.53310665 14.68717849 3.04123683 22 5.5625 C23.26408497 5.99223702 24.52840635 6.42127931 25.79296875 6.84960938 C28.86436798 7.89294728 31.93319848 8.9432398 35 10 C35 10.99 35 11.98 35 13 C37.475 13.99 37.475 13.99 40 15 C36.87729307 16.56135347 34.69482442 15.19938014 31.4375 14.1875 C30.26058594 13.83042969 29.08367187 13.47335938 27.87109375 13.10546875 C25 12 25 12 24 10 C21.07306633 8.53653316 18.63498064 7.9496525 15.375 7.5 C12 7 12 7 9 5 C9.33 4.67 9.66 4.34 10 4 C6.7 3.01 3.4 2.02 0 1 C0 0.67 0 0.34 0 0 Z " fill="#D7DEFF" transform="translate(312,30)"/>
    <path d="M0 0 C2.46504008 2.23158472 3.86165978 4.37315278 5.3046875 7.359375 C5.72089355 8.22014648 6.13709961 9.08091797 6.56591797 9.96777344 C6.99791504 10.8859082 7.42991211 11.80404297 7.875 12.75 C8.32117676 13.69649414 8.76735352 14.64298828 9.22705078 15.61816406 C16.18770865 30.63893288 20.86025634 46.56676868 23 63 C21.515 62.505 21.515 62.505 20 62 C19.938125 60.865625 19.87625 59.73125 19.8125 58.5625 C19.03367773 51.4974694 16.72075565 44.80727497 14.62011719 38.046875 C14.08838657 36.29174528 13.60560715 34.52191507 13.1328125 32.75 C10.83796508 24.35741516 7.1910955 16.75867219 3.3527832 8.98144531 C2.9218335 8.10713867 2.49088379 7.23283203 2.046875 6.33203125 C1.65338867 5.54546143 1.25990234 4.7588916 0.85449219 3.94848633 C0 2 0 2 0 0 Z " fill="#DFE4FF" transform="translate(439,162)"/>
    <path d="M0 0 C-3.10431408 2.06954272 -5.28785829 2.70455836 -8.875 3.625 C-22.96950149 7.54986636 -36.61653862 12.87397171 -49.48046875 19.84765625 C-50.31191406 20.22792969 -51.14335937 20.60820313 -52 21 C-52.66 20.67 -53.32 20.34 -54 20 C-52.5024327 19.07936437 -51.00178619 18.16373738 -49.5 17.25 C-48.6646875 16.73953125 -47.829375 16.2290625 -46.96875 15.703125 C-39.72366963 11.54673679 -32.41643726 8.6019818 -24.5 5.9375 C-22.51011195 5.26000893 -20.52052266 4.58163963 -18.53125 3.90234375 C-17.58894531 3.58289795 -16.64664063 3.26345215 -15.67578125 2.93432617 C-13.24888776 2.08690634 -10.86033301 1.17576022 -8.46875 0.234375 C-4.97716572 -1.00812571 -3.45096463 -1.18626909 0 0 Z " fill="#DAE0FF" transform="translate(216,51)"/>
    <path d="M0 0 C0 0.66 0 1.32 0 2 C-5.61 2.66 -11.22 3.32 -17 4 C-16.67 4.66 -16.34 5.32 -16 6 C-18.04071515 6.33910994 -20.08262621 6.67102704 -22.125 7 C-23.83042969 7.2784375 -23.83042969 7.2784375 -25.5703125 7.5625 C-28.78959233 7.97315984 -31.76231931 8.22522996 -35 8 C-35.66 7.34 -36.32 6.68 -37 6 C-24.88104316 1.97935785 -12.81155642 -0.64415647 0 0 Z " fill="#E4E9FF" transform="translate(252,43)"/>
    <path d="M0 0 C1.625 1.21875 1.625 1.21875 3.25 2.4375 C3.98992187 2.98921875 4.72984375 3.5409375 5.4921875 4.109375 C7.19745516 5.39496619 8.88983039 6.69780013 10.5703125 8.015625 C20.9454751 16.04987348 32.1523803 23.32066484 44 29 C42.31689453 29.66772461 42.31689453 29.66772461 40 30 C37.59326172 28.95532227 37.59326172 28.95532227 34.9296875 27.31640625 C33.95 26.71763672 32.9703125 26.11886719 31.9609375 25.50195312 C30.94257813 24.86193359 29.92421875 24.22191406 28.875 23.5625 C27.87984375 22.95728516 26.8846875 22.35207031 25.859375 21.72851562 C19.98451738 18.09699463 14.52774641 14.19900759 9.22167969 9.77709961 C5.98925126 7.19151208 2.55805596 5.1084776 -1 3 C-0.67 2.01 -0.34 1.02 0 0 Z " fill="#D9DFFF" transform="translate(119,400)"/>
    <path d="M0 0 C1.5778125 0.4021875 1.5778125 0.4021875 3.1875 0.8125 C3.5175 2.1325 3.8475 3.4525 4.1875 4.8125 C-0.21336567 7.93569499 -4.60709302 8.84853575 -9.8125 9.8125 C-9.51723074 6.36769195 -8.77188703 4.75755304 -6.6875 1.9375 C-3.8125 -0.1875 -3.8125 -0.1875 0 0 Z " fill="#EEEEEE" transform="translate(187.8125,243.1875)"/>
    <path d="M0 0 C3.43640382 0.57320075 4.9399995 1.62169208 7.2421875 4.203125 C8.12970703 5.17958984 8.12970703 5.17958984 9.03515625 6.17578125 C9.64230469 6.86027344 10.24945313 7.54476563 10.875 8.25 C15.85314765 13.84259867 15.85314765 13.84259867 21.4453125 18.796875 C22.28835937 19.52390625 23.13140625 20.2509375 24 21 C24 21.99 24 22.98 24 24 C19.88846713 22.32937715 16.88879966 19.41802037 13.6875 16.4375 C13.11298096 15.90535889 12.53846191 15.37321777 11.9465332 14.82495117 C7.47030233 10.60298691 3.37705415 6.1699629 0 1 C0 0.67 0 0.34 0 0 Z " fill="#F1F3FF" transform="translate(95,378)"/>
    <path d="M0 0 C2.06182006 3.09273009 3.03391215 5.73290111 4.20703125 9.25 C4.62919922 10.49910156 5.05136719 11.74820312 5.48632812 13.03515625 C6.14608351 15.0044519 6.80395958 16.97435622 7.46020508 18.94482422 C9.9451719 26.38557877 12.54974187 33.61381511 16.08862305 40.6328125 C17.09559777 43.24830323 17.17211164 45.221494 17 48 C14.517312 44.97241906 13.06678962 42.06008979 11.66015625 38.4140625 C11.23847168 37.32432129 10.81678711 36.23458008 10.38232422 35.11181641 C9.94678223 33.96116699 9.51124023 32.81051758 9.0625 31.625 C8.61664551 30.45501465 8.17079102 29.2850293 7.71142578 28.07958984 C0 7.60579703 0 7.60579703 0 0 Z " fill="#D5DDFF" transform="translate(55,295)"/>
    <path d="M0 0 C1.09114938 3.25654171 0.92929808 4.98722967 -0.328125 8.16015625 C-0.63226318 8.9493042 -0.93640137 9.73845215 -1.24975586 10.55151367 C-1.57983643 11.38013916 -1.90991699 12.20876465 -2.25 13.0625 C-4.90511158 19.96211067 -7.2992622 26.79211123 -9 34 C-9.66 33.67 -10.32 33.34 -11 33 C-10.43615943 26.26567877 -8.65441874 20.36541026 -6.4375 14 C-6.10814453 13.03449219 -5.77878906 12.06898438 -5.43945312 11.07421875 C-4.63313798 8.71370194 -3.81987837 6.35583283 -3 4 C-2.34 4 -1.68 4 -1 4 C-0.67 2.68 -0.34 1.36 0 0 Z " fill="#DAE0FF" transform="translate(45,167)"/>
    <path d="M0 0 C6.51439606 0.55483333 12.38877477 1.75233133 18.625 3.6875 C19.91519043 4.08026123 19.91519043 4.08026123 21.23144531 4.48095703 C29.00336621 6.89834406 36.5170436 9.80273681 44 13 C39.72159368 14.42613544 36.6338435 12.71428076 32.5625 11.25 C26.12693055 9.0078013 19.74517057 7.04931844 13.08984375 5.54296875 C11 5 11 5 10 4 C8.00041636 3.95919217 5.99954746 3.95745644 4 4 C4 3.34 4 2.68 4 2 C2.68 1.34 1.36 0.68 0 0 Z " fill="#A3B3FF" transform="translate(292,51)"/>
    <path d="M0 0 C0.33 0 0.66 0 1 0 C1.85481185 9.508138 2.04377631 18.47754842 1 28 C-1.55459656 25.77861169 -2.38317413 24.30497734 -3 21 C-3.07866959 19.41307361 -3.10784114 17.82321751 -3.09765625 16.234375 C-3.09443359 15.34492188 -3.09121094 14.45546875 -3.08789062 13.5390625 C-3.07532227 12.15847656 -3.07532227 12.15847656 -3.0625 10.75 C-3.05798828 9.81414062 -3.05347656 8.87828125 -3.04882812 7.9140625 C-3.03706918 5.60930959 -3.02063426 3.30468773 -3 1 C-2.67 1 -2.34 1 -2 1 C-1.67 2.98 -1.34 4.96 -1 7 C-0.67 4.69 -0.34 2.38 0 0 Z " fill="#C9D2FF" transform="translate(65,225)"/>
    <path d="M0 0 C0 0.66 0 1.32 0 2 C-0.99012085 2.2945105 -0.99012085 2.2945105 -2.00024414 2.5949707 C-5.02229434 3.49652561 -8.04239292 4.40445812 -11.0625 5.3125 C-12.10083984 5.62123047 -13.13917969 5.92996094 -14.20898438 6.24804688 C-20.74530546 8.21930573 -20.74530546 8.21930573 -27.05859375 10.79296875 C-30 12 -30 12 -33 11 C-29.99344736 8.51216953 -27.22629833 7.19469538 -23.53515625 5.95703125 C-22.48779297 5.60576172 -21.44042969 5.25449219 -20.36132812 4.89257812 C-19.27271484 4.53615234 -18.18410156 4.17972656 -17.0625 3.8125 C-15.97775391 3.44447266 -14.89300781 3.07644531 -13.77539062 2.69726562 C-12.72673828 2.34986328 -11.67808594 2.00246094 -10.59765625 1.64453125 C-9.64383057 1.32846924 -8.69000488 1.01240723 -7.70727539 0.68676758 C-5.01826954 0.00463452 -2.76037675 -0.13195397 0 0 Z " fill="#5775FF" transform="translate(214,65)"/>
    <path d="M0 0 C4.83628305 0.99043705 9.47618873 1.95698846 14 4 C14.33 3.34 14.66 2.68 15 2 C17.31 2.66 19.62 3.32 22 4 C21.67 4.66 21.34 5.32 21 6 C19.68 5.34 18.36 4.68 17 4 C17 4.66 17 5.32 17 6 C18.98 6.66 20.96 7.32 23 8 C22.01 8.495 22.01 8.495 21 9 C20.67 9.66 20.34 10.32 20 11 C17.39425662 9.87854082 14.79040944 8.75300203 12.1875 7.625 C11.44951172 7.30789062 10.71152344 6.99078125 9.95117188 6.6640625 C9.23896484 6.3546875 8.52675781 6.0453125 7.79296875 5.7265625 C7.1383667 5.44377441 6.48376465 5.16098633 5.80932617 4.86962891 C3.19043176 3.61089164 1.32423721 2.64847442 0 0 Z " fill="#8198FF" transform="translate(321,63)"/>
    <path d="M0 0 C4.19924753 0.34522413 7.56164989 1.51309914 11.3359375 3.328125 C12.31820313 3.79863281 13.30046875 4.26914063 14.3125 4.75390625 C15.8284375 5.49447266 15.8284375 5.49447266 17.375 6.25 C18.87933594 6.96736328 18.87933594 6.96736328 20.4140625 7.69921875 C26.18674313 10.48733282 31.6345042 13.49129869 37 17 C36.01 17.495 36.01 17.495 35 18 C32.54259933 16.88189785 30.19167364 15.70486857 27.8125 14.4375 C18.17718165 9.45431943 8.32610912 5.35833944 -2 2 C-1.34 1.34 -0.68 0.68 0 0 Z " fill="#738CFF" transform="translate(321,69)"/>
    <path d="M0 0 C0.66 0.33 1.32 0.66 2 1 C0.89205078 1.81791016 0.89205078 1.81791016 -0.23828125 2.65234375 C-11.32888847 10.89631481 -21.86326706 19.60832674 -32 29 C-32 26 -32 26 -30.5234375 24.125 C-21.27733816 14.9797672 -11.02098501 6.90998266 0 0 Z " fill="#E3E8FF" transform="translate(148,80)"/>
    <path d="M0 0 C-1.47322125 3.45819304 -3.40462959 5.55628787 -6.125 8.125 C-10.87544504 12.75225684 -14.97114448 17.74162999 -19 23 C-19.66 22.67 -20.32 22.34 -21 22 C-19.31021686 17.759992 -16.27162013 14.82562589 -13.1875 11.5625 C-12.66607422 11.00240234 -12.14464844 10.44230469 -11.60742188 9.86523438 C-10.08205371 8.23322374 -8.54344529 6.61490575 -7 5 C-6.52771973 4.49710449 -6.05543945 3.99420898 -5.56884766 3.47607422 C-2.23235514 0 -2.23235514 0 0 0 Z " fill="#637FFF" transform="translate(98,86)"/>
    <path d="M0 0 C0 3 0 3 -1 6 C-2.84765625 7.16796875 -2.84765625 7.16796875 -5.0625 8.1875 C-6.16271484 8.70376953 -6.16271484 8.70376953 -7.28515625 9.23046875 C-7.85105469 9.48441406 -8.41695312 9.73835938 -9 10 C-9 9.34 -9 8.68 -9 8 C-9.80824219 8.55429688 -10.61648437 9.10859375 -11.44921875 9.6796875 C-13.05216797 10.76636719 -13.05216797 10.76636719 -14.6875 11.875 C-15.74324219 12.59429687 -16.79898438 13.31359375 -17.88671875 14.0546875 C-20.56978706 15.73118438 -23.02840192 16.95249789 -26 18 C-22.09699484 13.74633422 -17.9282075 10.84829124 -13 7.875 C-12.30132812 7.44574219 -11.60265625 7.01648438 -10.8828125 6.57421875 C-7.26977771 4.35867855 -3.63800651 2.17427733 0 0 Z " fill="#DBE1FF" transform="translate(153,61)"/>
    <path d="M0 0 C0.33 1.32 0.66 2.64 1 4 C1.66 3.01 2.32 2.02 3 1 C2.26309887 7.48472993 0.64681249 13.69239743 -1 20 C-1.66 20 -2.32 20 -3 20 C-2.67 17.36 -2.34 14.72 -2 12 C-2.66 12 -3.32 12 -4 12 C-3.5317879 7.22423661 -2.75668002 3.95523655 0 0 Z " fill="#F7F9FF" transform="translate(74,181)"/>
    <path d="M0 0 C0.33 0 0.66 0 1 0 C1.02505615 0.86052979 1.0501123 1.72105957 1.07592773 2.60766602 C1.17251572 5.87873523 1.27162969 9.14970954 1.37231445 12.4206543 C1.41495327 13.82166671 1.45665799 15.22270795 1.49731445 16.6237793 C1.55679009 18.6672446 1.61941724 20.71058341 1.68359375 22.75390625 C1.70424896 23.43329254 1.72490417 24.11267883 1.7461853 24.81265259 C1.86352357 28.28375994 2.04157966 31.73726452 2.32861328 35.19873047 C2.38316177 35.87387192 2.43771027 36.54901337 2.49391174 37.24461365 C2.65047818 39.10014509 2.8228887 40.95432011 2.99633789 42.80834961 C3.00009912 46.08638493 2.43478564 48.08343717 1 51 C0.67 51 0.34 51 0 51 C0 34.17 0 17.34 0 0 Z " fill="#A0B1FF" transform="translate(30,235)"/>
    <path d="M0 0 C0.66 0 1.32 0 2 0 C0.74132648 5.48422034 -1.08759258 8.93993914 -4.625 13.4375 C-5.04523438 13.97826172 -5.46546875 14.51902344 -5.8984375 15.07617188 C-6.92280733 16.39155586 -7.96007247 17.69688093 -9 19 C-9.82463605 16.69101907 -10.16323703 15.44890182 -9.3125 13.109375 C-7.6354961 10.41419017 -5.85426311 7.82688035 -4 5.25 C-3.29875 4.26515625 -2.5975 3.2803125 -1.875 2.265625 C-0.946875 1.14414063 -0.946875 1.14414063 0 0 Z " fill="#849AFF" transform="translate(76,108)"/>
    <path d="M0 0 C0.33 0 0.66 0 1 0 C1 2.97 1 5.94 1 9 C1.33 9 1.66 9 2 9 C1.67 13.62 1.34 18.24 1 23 C0.34 22.34 -0.32 21.68 -1 21 C-1.66 21.33 -2.32 21.66 -3 22 C-2.59722507 14.45326965 -2.17808026 7.26026753 0 0 Z " fill="#B3C1FF" transform="translate(69,202)"/>
    <path d="M0 0 C1.60080151 4.00200378 0.29279692 7.04556236 -1 11 C-0.01 11.33 0.98 11.66 2 12 C1.34 13.98 0.68 15.96 0 18 C-2.80976532 15.19023468 -4.54570329 11.97509618 -5 8 C-4.411438 5.645752 -3.75407101 3.30657014 -3 1 C-2.67 1.66 -2.34 2.32 -2 3 C-1.34 3 -0.68 3 0 3 C0 2.01 0 1.02 0 0 Z " fill="#D9E0FF" transform="translate(72,190)"/>
    <path d="M0 0 C2 3 2 3 1.79296875 5.34765625 C1.59316406 6.24355469 1.39335938 7.13945312 1.1875 8.0625 C0.09129886 13.36669907 -0.55535363 18.60573746 -1 24 C-1.66 24 -2.32 24 -3 24 C-3 26.64 -3 29.28 -3 32 C-3.33 32 -3.66 32 -4 32 C-4.29465144 24.54572783 -3.44322064 17.67886662 -2 10.375 C-1.80921875 9.37082031 -1.6184375 8.36664063 -1.421875 7.33203125 C-0.95602856 4.88633744 -0.48197402 2.44255719 0 0 Z " fill="#ADBCFF" transform="translate(33,201)"/>
    <path d="M0 0 C0.928125 0.2784375 0.928125 0.2784375 1.875 0.5625 C4.04160178 1.23686176 4.04160178 1.23686176 6 0 C8.1640625 0.77734375 8.1640625 0.77734375 10.625 1.9375 C11.44226563 2.31777344 12.25953125 2.69804688 13.1015625 3.08984375 C13.72804688 3.39019531 14.35453125 3.69054687 15 4 C13.3125 5.5625 13.3125 5.5625 11 7 C8.25 6.6875 8.25 6.6875 6 6 C6 5.34 6 4.68 6 4 C4.02 3.34 2.04 2.68 0 2 C0 1.34 0 0.68 0 0 Z " fill="#6984FF" transform="translate(338,67)"/>
    <path d="M0 0 C0 3.94937362 -1.41386656 5.15554677 -3.8125 8.25 C-6.95398216 12.42756182 -9.10863827 16.16652002 -11 21 C-11.66 21.33 -12.32 21.66 -13 22 C-12.67346737 15.64894033 -10.55000105 12.40951005 -6.5 7.625 C-5.73236328 6.68333984 -5.73236328 6.68333984 -4.94921875 5.72265625 C-1.45954241 1.45954241 -1.45954241 1.45954241 0 0 Z " fill="#6A84FF" transform="translate(103,132)"/>
    <path d="M0 0 C0.66 0.33 1.32 0.66 2 1 C-3.61 6.61 -9.22 12.22 -15 18 C-15.66 17.67 -16.32 17.34 -17 17 C-12.0252641 11.16526986 -6.8758329 5.92339116 -1 1 C-0.67 0.67 -0.34 0.34 0 0 Z " fill="#7E95FF" transform="translate(123,101)"/>
    <path d="M0 0 C0.99 0.33 1.98 0.66 3 1 C1.58397949 3.20874995 0.16720194 5.41700826 -1.25 7.625 C-1.64574219 8.24246094 -2.04148437 8.85992187 -2.44921875 9.49609375 C-4.92830149 13.35696031 -7.4440691 17.18955256 -10 21 C-10.33 20.34 -10.66 19.68 -11 19 C-10.10375977 17.02880859 -10.10375977 17.02880859 -8.69140625 14.6484375 C-8.19189453 13.79765625 -7.69238281 12.946875 -7.17773438 12.0703125 C-6.64470703 11.18085938 -6.11167969 10.29140625 -5.5625 9.375 C-5.03333984 8.4778125 -4.50417969 7.580625 -3.95898438 6.65625 C-2.646418 4.43316461 -1.32652747 2.21477355 0 0 Z " fill="#DFE4FF" transform="translate(84,125)"/>
    <path d="M0 0 C0 0.33 0 0.66 0 1 C-2.04071515 1.33910994 -4.08262621 1.67102704 -6.125 2 C-7.83042969 2.2784375 -7.83042969 2.2784375 -9.5703125 2.5625 C-12.78959233 2.97315984 -15.76231931 3.22522996 -19 3 C-19.66 2.34 -20.32 1.68 -21 1 C-14.63235932 -2.39607503 -6.83946671 -1.43988773 0 0 Z " fill="#A1B2FF" transform="translate(236,48)"/>
    <path d="M0 0 C0.99 0.33 1.98 0.66 3 1 C2.67 5.95 2.34 10.9 2 16 C1.34 16 0.68 16 0 16 C0 10.72 0 5.44 0 0 Z " fill="#7A91FF" transform="translate(447,282)"/>
    <path d="M0 0 C0.99 0.33 1.98 0.66 3 1 C1.0874377 3.41994007 -0.83077239 5.83534387 -2.75 8.25 C-3.28882812 8.93191406 -3.82765625 9.61382812 -4.3828125 10.31640625 C-7.10226313 13.73230155 -9.81348488 16.99910712 -13 20 C-11.40013936 15.03657693 -8.47460168 11.29801238 -5.375 7.1875 C-4.6015625 6.14819336 -4.6015625 6.14819336 -3.8125 5.08789062 C-2.54657074 3.38826337 -1.27394735 1.69362565 0 0 Z " fill="#DCE2FF" transform="translate(104,127)"/>
    <path d="M0 0 C0.33 0.66 0.66 1.32 1 2 C0.37915039 3.69580078 0.37915039 3.69580078 -0.65234375 5.6953125 C-1.01650391 6.41074219 -1.38066406 7.12617188 -1.75585938 7.86328125 C-2.14580078 8.60964844 -2.53574219 9.35601562 -2.9375 10.125 C-3.32357422 10.87910156 -3.70964844 11.63320312 -4.10742188 12.41015625 C-5.06452132 14.27709097 -6.03136106 16.13902628 -7 18 C-7.66 18 -8.32 18 -9 18 C-7.65072455 13.46152802 -5.80840652 9.68067754 -3.375 5.625 C-2.74335937 4.56539062 -2.11171875 3.50578125 -1.4609375 2.4140625 C-0.73777344 1.21910156 -0.73777344 1.21910156 0 0 Z " fill="#ECF0FF" transform="translate(61,134)"/>
    <path d="M0 0 C0.99 0.33 1.98 0.66 3 1 C-1.77723958 4.98103298 -6.88933687 8.46719209 -12 12 C-12.66 11.67 -13.32 11.34 -14 11 C-9.52408597 7.04106084 -5.0521102 3.20614686 0 0 Z " fill="#7089FF" transform="translate(152,86)"/>
    <path d="M0 0 C0 3 0 3 -2.51953125 5.69921875 C-3.60935339 6.70387775 -4.70740276 7.69966798 -5.8125 8.6875 C-6.35970703 9.19861328 -6.90691406 9.70972656 -7.47070312 10.23632812 C-11.61626961 14 -11.61626961 14 -15 14 C-10.40152315 8.51766007 -6.02552612 3.89148562 0 0 Z " fill="#9AACFF" transform="translate(123,64)"/>
    <path d="M0 0 C4.96916636 0.51405169 9.29026351 1.23384882 14 3 C14 3.66 14 4.32 14 5 C15.65 5.33 17.3 5.66 19 6 C17.375 7.125 17.375 7.125 15 8 C11.75 7.125 11.75 7.125 9 6 C9.33 5.34 9.66 4.68 10 4 C6.7 3.01 3.4 2.02 0 1 C0 0.67 0 0.34 0 0 Z " fill="#B4C1FF" transform="translate(312,30)"/>
    <path d="M0 0 C2.33364352 2.92903058 4.04960836 5.88568203 5.6875 9.25 C6.12449219 10.14203125 6.56148438 11.0340625 7.01171875 11.953125 C7.33785156 12.62859375 7.66398437 13.3040625 8 14 C7.01 14.33 6.02 14.66 5 15 C4.15415002 13.44424022 3.32381601 11.8800388 2.5 10.3125 C2.0359375 9.44238281 1.571875 8.57226562 1.09375 7.67578125 C-0.04818792 4.88211171 -0.21504208 2.98370887 0 0 Z " fill="#E2E7FF" transform="translate(72,340)"/>
    <path d="M0 0 C-2.80804268 2.96404505 -5.18315774 5.44499019 -9 7 C-8.8125 4.6875 -8.8125 4.6875 -8 2 C-3.84375 -1.28125 -3.84375 -1.28125 0 0 Z " fill="#CDD6FF" transform="translate(150,93)"/>
    <path d="M0 0 C7.75 0.875 7.75 0.875 10 2 C10 2.66 10 3.32 10 4 C5.58937864 5.0257259 3.07369424 5.03684712 -1 3 C-0.67 2.01 -0.34 1.02 0 0 Z " fill="#6883FF" transform="translate(307,26)"/>
    <path d="M0 0 C0.66 0.33 1.32 0.66 2 1 C0.14285714 9.71428571 0.14285714 9.71428571 -3 12 C-3.66 11.67 -4.32 11.34 -5 11 C-3.55049545 7.2089881 -1.84827434 3.6125362 0 0 Z " fill="#93A6FF" transform="translate(422,355)"/>
    <path d="M0 0 C0 0.66 0 1.32 0 2 C-2.30595384 3.62946228 -4.60196707 5.1435897 -7 6.625 C-8.00160156 7.25535156 -8.00160156 7.25535156 -9.0234375 7.8984375 C-10.67831454 8.93864592 -12.33866288 9.97014051 -14 11 C-14 10.01 -14 9.02 -14 8 C-11.4453125 5.95703125 -11.4453125 5.95703125 -8.125 3.8125 C-7.03445312 3.09707031 -5.94390625 2.38164063 -4.8203125 1.64453125 C-2 0 -2 0 0 0 Z " fill="#ACBBFF" transform="translate(141,53)"/>
    <path d="M0 0 C2 2 2 2 2.22705078 4.06298828 C2.21657715 4.89040527 2.20610352 5.71782227 2.1953125 6.5703125 C2.18886719 7.46621094 2.18242187 8.36210937 2.17578125 9.28515625 C2.15902344 10.22230469 2.14226562 11.15945313 2.125 12.125 C2.11597656 13.06988281 2.10695313 14.01476562 2.09765625 14.98828125 C2.07404522 17.32577292 2.04111516 19.66276123 2 22 C1.67 22 1.34 22 1 22 C0.93941406 20.96359375 0.87882812 19.9271875 0.81640625 18.859375 C0.73196629 17.48957127 0.64732003 16.11978025 0.5625 14.75 C0.52318359 14.06808594 0.48386719 13.38617188 0.44335938 12.68359375 C0.27118175 9.95524069 0.09230951 7.35475813 -0.59765625 4.703125 C-1 3 -1 3 0 0 Z " fill="#7B93FF" transform="translate(437,292)"/>
    <path d="M0 0 C-3.96 1.98 -3.96 1.98 -8 4 C-8 4.66 -8 5.32 -8 6 C-9.98 6.66 -11.96 7.32 -14 8 C-14 7.01 -14 6.02 -14 5 C-13.34 5 -12.68 5 -12 5 C-12 4.34 -12 3.68 -12 3 C-10.5682384 2.30062798 -9.12932968 1.61587282 -7.6875 0.9375 C-6.48673828 0.36322266 -6.48673828 0.36322266 -5.26171875 -0.22265625 C-3 -1 -3 -1 0 0 Z " fill="#97AAFF" transform="translate(190,72)"/>
    <path d="M0 0 C1.66870487 0.32297514 3.33465333 0.66013333 5 1 C5.74765625 1.14566406 6.4953125 1.29132812 7.265625 1.44140625 C8.06484375 1.60511719 8.8640625 1.76882812 9.6875 1.9375 C10.45449219 2.09089844 11.22148437 2.24429688 12.01171875 2.40234375 C14 3 14 3 16 5 C11.97063679 6.34312107 8.89861699 5.31218043 5 4 C2 2.4375 2 2.4375 0 1 C0 0.67 0 0.34 0 0 Z " fill="#D1D9FF" transform="translate(347,60)"/>
    <path d="M0 0 C-0.33 0.66 -0.66 1.32 -1 2 C-6.36864892 3.72888694 -11.48903321 4.45025442 -17 3 C-17 2.67 -17 2.34 -17 2 C-5.47835991 -0.29612756 -5.47835991 -0.29612756 0 0 Z " fill="#6580FF" transform="translate(247,45)"/>
    <path d="M0 0 C0.33 0 0.66 0 1 0 C1.02688151 1.64574566 1.04634123 3.29161413 1.0625 4.9375 C1.07410156 5.85402344 1.08570313 6.77054688 1.09765625 7.71484375 C1 10 1 10 0 11 C-0.23427778 13.01594582 -0.41336124 15.038474 -0.5625 17.0625 C-0.64628906 18.16722656 -0.73007812 19.27195313 -0.81640625 20.41015625 C-0.87699219 21.26480469 -0.93757813 22.11945313 -1 23 C-1.33 23 -1.66 23 -2 23 C-2 18.05 -2 13.1 -2 8 C-1.34 8 -0.68 8 0 8 C0 5.36 0 2.72 0 0 Z " fill="#EAEDFF" transform="translate(30,225)"/>
    <path d="M0 0 C0.98120464 3.05263664 0.98120464 4.94736336 0 8 C-0.66 8 -1.32 8 -2 8 C-2 8.66 -2 9.32 -2 10 C-2.66 10 -3.32 10 -4 10 C-3.67 7.03 -3.34 4.06 -3 1 C-2.67 1.66 -2.34 2.32 -2 3 C-1.34 3 -0.68 3 0 3 C0 2.01 0 1.02 0 0 Z " fill="#E5E9FF" transform="translate(72,190)"/>
    <path d="M0 0 C4.96085582 0.63600716 8.78408528 2.37929625 13 5 C9.8568669 6.57156655 7.634536 5.11705576 4.375 4.0625 C2.59222656 3.49208984 2.59222656 3.49208984 0.7734375 2.91015625 C-0.14179688 2.60980469 -1.05703125 2.30945312 -2 2 C-1.34 1.34 -0.68 0.68 0 0 Z " fill="#ABBAFF" transform="translate(339,40)"/>
    <path d="M0 0 C1.21386936 3.64160808 0.6674695 4.33165469 -0.9375 7.6875 C-1.31777344 8.49574219 -1.69804688 9.30398437 -2.08984375 10.13671875 C-2.39019531 10.75160156 -2.69054687 11.36648437 -3 12 C-3.66 12 -4.32 12 -5 12 C-5.33 12.66 -5.66 13.32 -6 14 C-5.39009109 10.44219804 -4.4216319 7.3171411 -3 4 C-2.34 4 -1.68 4 -1 4 C-0.67 2.68 -0.34 1.36 0 0 Z " fill="#B9C5FF" transform="translate(82,167)"/>
    <path d="M0 0 C2.05137315 3.48216283 2.56818592 6.77275657 3.125 10.75 C3.29257812 11.92046875 3.46015625 13.0909375 3.6328125 14.296875 C3.75398438 15.18890625 3.87515625 16.0809375 4 17 C3.01 16.67 2.02 16.34 1 16 C0.93941406 15.40832031 0.87882812 14.81664062 0.81640625 14.20703125 C0.45328642 10.78253194 0.09228355 7.43373269 -0.625 4.0625 C-1 2 -1 2 0 0 Z " fill="#DAE1FF" transform="translate(458,208)"/>
    <path d="M0 0 C0.33 0 0.66 0 1 0 C1 2.64 1 5.28 1 8 C1.66 8 2.32 8 3 8 C2.67 11.63 2.34 15.26 2 19 C1.67 19 1.34 19 1 19 C0.03794912 12.62641289 -0.10655578 6.44070471 0 0 Z " fill="#CFD8FF" transform="translate(28,260)"/>
    <path d="M0 0 C1.41805831 0.28482368 2.83440379 0.57818144 4.25 0.875 C5.03890625 1.03742187 5.8278125 1.19984375 6.640625 1.3671875 C8.96831144 1.99150075 10.89031952 2.84838542 13 4 C12.67 4.99 12.34 5.98 12 7 C8.04 5.02 4.08 3.04 0 1 C0 0.67 0 0.34 0 0 Z " fill="#6B86FF" transform="translate(345,44)"/>
    <path d="M0 0 C0.66 0.66 1.32 1.32 2 2 C-0.64 2.33 -3.28 2.66 -6 3 C-6 2.34 -6 1.68 -6 1 C-7.32 0.67 -8.64 0.34 -10 0 C-3.42391304 -1.3451087 -3.42391304 -1.3451087 0 0 Z " fill="#708AFF" transform="translate(215,27)"/>
    <path d="M0 0 C3.8063457 0.67170806 7.35206816 1.72746564 11 3 C10.67 3.99 10.34 4.98 10 6 C5.05 4.02 5.05 4.02 0 2 C0 1.34 0 0.68 0 0 Z " fill="#5473FF" transform="translate(325,62)"/>
    <path d="M0 0 C0 0.99 0 1.98 0 3 C-3.63 2.67 -7.26 2.34 -11 2 C-10 0 -10 0 -8.3125 -0.6875 C-5.37519398 -1.08443325 -2.88840266 -0.59080963 0 0 Z " fill="#6581FF" transform="translate(303,25)"/>
    <path d="M0 0 C0.33 0 0.66 0 1 0 C1.22384382 1.72722728 1.42839969 3.45696007 1.625 5.1875 C1.74101563 6.15042969 1.85703125 7.11335938 1.9765625 8.10546875 C2.00194942 11.24075323 1.34359283 13.19486535 0 16 C-0.33 16 -0.66 16 -1 16 C-0.67 10.72 -0.34 5.44 0 0 Z " fill="#94A8FF" transform="translate(31,270)"/>
    <path d="M0 0 C2 3 2 3 1.7578125 5.26171875 C1.54898438 6.06222656 1.34015625 6.86273438 1.125 7.6875 C0.92132813 8.49574219 0.71765625 9.30398437 0.5078125 10.13671875 C0.25644531 11.05904297 0.25644531 11.05904297 0 12 C-0.66 11.67 -1.32 11.34 -2 11 C-1.125 3.375 -1.125 3.375 0 0 Z " fill="#BBC7FF" transform="translate(36,189)"/>
    <path d="M0 0 C2.31 1.65 4.62 3.3 7 5 C6.01 5.33 5.02 5.66 4 6 C1.3125 4.5625 1.3125 4.5625 -1 3 C-0.67 2.01 -0.34 1.02 0 0 Z " fill="#CED6FF" transform="translate(119,400)"/>
    <path d="M0 0 C0.99 0.495 0.99 0.495 2 1 C2.33 1.99 2.66 2.98 3 4 C3.66 3.67 4.32 3.34 5 3 C5.33 4.65 5.66 6.3 6 8 C5.01 8.33 4.02 8.66 3 9 C2.01 6.03 1.02 3.06 0 0 Z " fill="#7A92FF" transform="translate(40,327)"/>
    <path d="M0 0 C0.33 0.66 0.66 1.32 1 2 C0.22265625 4.1640625 0.22265625 4.1640625 -0.9375 6.625 C-1.31777344 7.44226563 -1.69804688 8.25953125 -2.08984375 9.1015625 C-2.39019531 9.72804687 -2.69054688 10.35453125 -3 11 C-3.66 10.67 -4.32 10.34 -5 10 C-3.66511872 6.40608886 -2.03977277 3.24509304 0 0 Z " fill="#E3E8FF" transform="translate(61,134)"/>
    <path d="M0 0 C0.66 0.33 1.32 0.66 2 1 C1.67 3.31 1.34 5.62 1 8 C0.01 8 -0.98 8 -2 8 C-1.125 1.125 -1.125 1.125 0 0 Z " fill="#6883FF" transform="translate(448,312)"/>
    <path d="M0 0 C0.99 0.99 1.98 1.98 3 3 C2.6875 6.6875 2.6875 6.6875 2 10 C1.67 10 1.34 10 1 10 C0.67 6.7 0.34 3.4 0 0 Z " fill="#758EFF" transform="translate(450,220)"/>
    <path d="M0 0 C0.99 0.33 1.98 0.66 3 1 C1.02 3.31 -0.96 5.62 -3 8 C-3.66 7.67 -4.32 7.34 -5 7 C-3.35 4.69 -1.7 2.38 0 0 Z " fill="#EAEEFF" transform="translate(104,127)"/>
    <path d="M0 0 C0 3 0 3 -1 6 C-1.99 6.33 -2.98 6.66 -4 7 C-4.33 5.68 -4.66 4.36 -5 3 C-3.35 2.01 -1.7 1.02 0 0 Z " fill="#E3E8FF" transform="translate(153,61)"/>
    <path d="M0 0 C1.89213369 2.38573379 3.02391783 4.07175348 4 7 C2.68 6.67 1.36 6.34 0 6 C-1.125 2.25 -1.125 2.25 0 0 Z " fill="#6883FF" transform="translate(57,361)"/>
    <path d="M0 0 C0.99 0 1.98 0 3 0 C2.43628586 3.26954202 1.50037734 4.82575883 -1 7 C-0.67 4.69 -0.34 2.38 0 0 Z " fill="#9AACFF" transform="translate(91,147)"/>
    <path d="M0 0 C3.6875 0.875 3.6875 0.875 7 2 C5.375 3.125 5.375 3.125 3 4 C-0.25 3.125 -0.25 3.125 -3 2 C-2.01 1.34 -1.02 0.68 0 0 Z " fill="#8CA1FF" transform="translate(324,34)"/>
</svg>
